<?xml version="1.0" encoding="iso-8859-1"?>
<!-- Generator: Adobe Illustrator 19.2.1, SVG Export Plug-In . SVG Version: 6.00 Build 0)  -->
<svg version="1.1" id="Layer_20" xmlns="http://www.w3.org/2000/svg" xmlns:xlink="http://www.w3.org/1999/xlink" x="0px" y="0px"
	 viewBox="0 0 750 500" style="enable-background:new 0 0 750 500;" xml:space="preserve">
<style type="text/css">
	.st0{fill:#FFFFFF;}
	.st1{filter:url(#Adobe_OpacityMaskFilter);}
	.st2{opacity:0.75;mask:url(#SVGID_1_);}
	.st3{fill:#494949;}
</style>
<g>
	<g>
		<g>
			
				<rect x="360.1" y="151.3" transform="matrix(0.7071 -0.7071 0.7071 0.7071 -6.7217 311.4389)" class="st0" width="25" height="25"/>
			
				<rect x="360.1" y="322.7" transform="matrix(0.7071 -0.7071 0.7071 0.7071 -127.8727 361.6213)" class="st0" width="25" height="25"/>
			<path class="st0" d="M645.3,169.9l-39.5,5.4l33.5,33.8L645.3,169.9z M634.4,194.3l-13.8-14l16.3-2.2L634.4,194.3z"/>
			<path class="st0" d="M99.9,169.9l6.1,39.2l33.5-33.8L99.9,169.9z M108.3,178.1l16.3,2.2l-13.8,14L108.3,178.1z"/>
			<path class="st0" d="M605.7,323.7l39.5,5.4l-6.1-39.2L605.7,323.7z M620.6,318.6l13.8-14l2.5,16.2L620.6,318.6z"/>
			<path class="st0" d="M99.9,329.1l39.5-5.4L106,289.9L99.9,329.1z M110.8,304.7l13.8,14l-16.3,2.2L110.8,304.7z"/>
			<path class="st0" d="M183.1,213l-33,74.3h13.4l5.6-13h31.5l5.4,13h13.9l-34-74.3H183.1z M194.8,263.6h-20.1
				c-0.4,0-0.7-0.5-0.6-0.9l9.9-22.8c0.2-0.5,0.8-0.5,1.1,0l10.2,22.8C195.6,263.2,195.3,263.6,194.8,263.6z"/>
			<path class="st0" d="M261.6,213.2c-25,0-28.9,0-28.9,0v74.3h11.8v-26.4h11.6l15.6,26.4H287c0,0-13.8-21.6-17.5-28.1
				C294.9,251.7,287.8,213.1,261.6,213.2z M259.2,250.2h-13.8v-26.1h13.8c7.2,0,13,5.8,13,13v0C272.2,244.4,266.4,250.2,259.2,250.2
				z"/>
			<path class="st0" d="M328.8,213.2h-26.9v74.3h26.9c20.4,0,36.9-16.5,36.9-36.9V250C365.7,229.7,349.2,213.2,328.8,213.2z
				 M351.8,251.5c0,13.8-11.2,25-25,25h-11.5v-52.4h11.5c13.8,0,25,11.2,25,25V251.5z"/>
			<polygon class="st0" points="378.6,287.5 424.4,287.5 424.4,276.5 392,276.5 392,255.3 419.5,255.3 419.5,243.8 391.9,243.8 
				391.9,224 424.4,224 424.4,213.2 378.6,213.2 			"/>
			<path class="st0" d="M476.5,210.7c-21.5,0-39,17.9-39,38.9c0,21,17.4,40.4,39,40.4c21.5,0,39-19.6,39-40.6S498,210.7,476.5,210.7
				z M476.5,278.1c-12.8,0-24-13.3-24-28.5c0-14.6,11-27,24-27c13,0,24,12.3,24,26.8C500.5,264.7,489.3,278.1,476.5,278.1z"/>
			<polygon class="st0" points="581,260 579.9,260 534.2,213.2 532.1,213.2 532.1,287.5 543.5,287.5 543.5,241.3 545.1,241.3 
				589.8,287.5 593.2,287.5 593.2,213.2 580.5,213.2 			"/>
			<path class="st0" d="M728.1,246.8c-11.9-4.1-23.5-9.2-34.6-15.2c-11.6-6.2-22.8-13.5-33.3-21.5v-55.2H553.7L372.6,20.5
				L191.5,154.8H84.9v55.2c-10.5,8.1-21.6,15.3-33.3,21.5c-11.1,5.9-22.7,11-34.6,15.2l-7.9,2.8l7.9,2.9c11,4,21.8,8.8,32.1,14.2
				c12.4,6.5,24.4,14.1,35.7,22.5v55h105.6L372,479.5l183.5-135.3h104.8v-55c11.3-8.4,23.3-16,35.7-22.5
				c10.3-5.4,21.2-10.2,32.1-14.2l7.9-2.9L728.1,246.8z M188.1,167.3l128.9,7.8l-0.1,0.5l10.3,7l-157.8-1.5L188.1,167.3z
				 M423.8,149.6l-27.6-1.8l0,0.1l-5.7-5.7c0.5-4.2,1.6-16,4.7-50.1l0.1-1.5l-22.7-21.3l-22.7,21.3l0.1,1.5
				c3.1,34.1,4.2,45.9,4.7,50.1L349,148l0-0.1l-27.6,1.8l-0.4,2.1h-50.1l101.7-91.2l101.7,91.2h-50.1L423.8,149.6z M375.5,127.3
				l9.9,5.2c-0.1,1.6-0.3,3-0.4,4.3L375.5,127.3z M356.6,98.8l12.7,21.7l-12-14.1C357,103.8,356.8,101.2,356.6,98.8z M369.8,122.7
				l-11.8-8c-0.2-2.2-0.4-4.4-0.6-6.6L369.8,122.7z M385.5,131.5l-9.9-5.2l10.2,1.9C385.8,129.3,385.7,130.4,385.5,131.5z
				 M386,127.1l-10.3-1.9l10.9-3.8C386.3,123.4,386.1,125.3,386,127.1z M386.6,120.3l-12.3,4.3L387,116
				C386.9,117.4,386.7,118.9,386.6,120.3z M387.9,106.4l-12,14.1l12.7-21.7C388.3,101.2,388.1,103.8,387.9,106.4z M387.7,108.1
				c-0.2,2.2-0.4,4.4-0.6,6.6l-11.8,8L387.7,108.1z M370.9,124.6l-12.3-4.3c-0.1-1.4-0.3-2.9-0.4-4.3L370.9,124.6z M369.5,125.2
				l-10.3,1.9c-0.2-1.8-0.4-3.7-0.5-5.7L369.5,125.2z M359.3,128.1l10.2-1.9l-9.9,5.2C359.5,130.4,359.4,129.3,359.3,128.1z
				 M388.8,96.4l-12.7,21.8l11.3-26.7l1.7,1.6C389,94.2,388.9,95.3,388.8,96.4z M374.5,119.3l7.9-32.4l4.2,3.9L374.5,119.3z
				 M373.8,118l3.7-35.8l4.1,3.9L373.8,118z M373.1,115.4V78.1l3.5,3.3L373.1,115.4z M372.1,115.4l-3.5-34l3.5-3.3V115.4z
				 M367.7,82.2l3.7,35.8l-7.8-31.9L367.7,82.2z M362.7,86.8l7.9,32.4l-12.1-28.5L362.7,86.8z M357.8,91.5l11.3,26.7l-12.7-21.8
				c-0.1-1.1-0.2-2.3-0.3-3.4L357.8,91.5z M359.7,132.5l9.9-5.2l-9.5,9.5C360,135.5,359.9,134.1,359.7,132.5z M372.6,135.7
				l28.2,28.2L372.6,192l-28.2-28.2L372.6,135.7z M383.6,192.3l-5.9,8.3l2.6-5L383.6,192.3z M373.8,205.9l1.9-5.7l2.1-2.1
				L373.8,205.9z M373.1,205v-2.1l1.1-1.1L373.1,205z M372.1,205l-1.2-3.3l1.2,1.2V205z M369.3,200.1l2,5.7l-4-7.8L369.3,200.1z
				 M364.9,195.7l2.6,5l-5.9-8.3L364.9,195.7z M365.8,200l-21.1-24.6l12.6,12.6L365.8,200z M387.9,188l12.6-12.6L379.3,200
				L387.9,188z M408,159.8l4.9-6.9l6.6,0.4l-8.3,9.6L408,159.8z M407.3,159l-3.7-3.7l1.7-2.9l6.4,0.4L407.3,159z M402.8,154.6
				l-2.5-2.5l3.8,0.2L402.8,154.6z M342.3,154.6l-1.3-2.3l3.8-0.2L342.3,154.6z M339.9,152.4l1.7,2.9l-3.7,3.7l-4.4-6.2L339.9,152.4
				z M332.3,152.9l4.9,6.9L334,163l-8.3-9.6L332.3,152.9z M324.7,153.7l8.5,9.9l-0.2,0.2l2.2,2.2l26.9,31.3l-38.3-39L324.7,153.7z
				 M409.9,166l2.2-2.2l-0.2-0.2l8.5-9.9l0.8,4.5l-38.3,39L409.9,166z M322.9,164.2l37.6,34.2l-38.3-30.6L322.9,164.2z M323.1,163
				l0.6-3.5l36.4,37.1L323.1,163z M421.4,159.5l0.6,3.5l-37,33.6L421.4,159.5z M422.2,164.2l0.6,3.6l-38.3,30.6L422.2,164.2z
				 M425.2,157.8h64.7L372.6,52.5L255.2,157.8H320l-1.8,10.3l-92-2.9L372.6,42.9l146.8,122.6l-92.4,2.6L425.2,157.8z M321.3,173.7
				l0.8-4.8l43.8,35L321.3,173.7z M423.1,168.9l0.8,4.8l-44.6,30.2L423.1,168.9z M428.3,175.6l-0.1-0.5l129.5-7.3l18,13.3
				l-157.9,1.6L428.3,175.6z M553.4,164.5l-18.1,0.5L372.6,36.8L210.4,164.7l-18-0.6L372.6,30.5L553.4,164.5z M26.6,249.7
				c9.5-3.7,18.9-8,27.9-12.8c11.8-6.3,23.1-13.6,33.7-21.8c6.6,6.3,13.6,12.2,20.9,17.5c8.4,6.2,17.4,11.9,26.7,16.8
				c-9.4,4.6-18.3,10-26.7,16.1c-7.5,5.5-14.6,11.7-21.1,18.4c-11.4-8.4-23.5-16-36-22.6C43.8,257,35.3,253.1,26.6,249.7z
				 M556.8,333.2L428,325.1l0.1-0.5l-12.2-8.3l161.7,1.6L556.8,333.2z M321.1,350.3l27.6,1.8l0-0.1l5.7,5.7
				c-0.5,4.2-1.7,16-4.8,50.1l-0.1,1.5l22.7,21.4l22.8-21.2l-0.1-1.5c-3-34.1-4.1-45.9-4.6-50.1l5.7-5.7l0,0.1l27.6-1.7l0.4-2.1
				l50.1,0.1l-101.9,90.9L270.7,348l50.1,0.1L321.1,350.3z M369.3,372.7l-9.9-5.3c0.2-1.6,0.3-3,0.4-4.2L369.3,372.7z M388.2,401.3
				l-12.6-21.8l12,14.2C387.7,396.3,387.9,398.8,388.2,401.3z M375,377.3l11.7,8c0.2,2.2,0.4,4.4,0.6,6.6L375,377.3z M359.3,368.5
				l9.8,5.2l-10.2-1.9C359.1,370.7,359.2,369.6,359.3,368.5z M358.9,372.9l10.3,1.9l-10.9,3.8C358.5,376.6,358.7,374.7,358.9,372.9z
				 M358.2,379.7l12.4-4.3l-12.8,8.6C357.9,382.6,358.1,381.1,358.2,379.7z M356.9,393.6l12-14.1l-12.7,21.7
				C356.4,398.7,356.7,396.2,356.9,393.6z M357.1,391.9c0.2-2.2,0.4-4.4,0.6-6.6l11.8-8L357.1,391.9z M373.9,375.4l12.3,4.4
				c0.1,1.4,0.3,2.9,0.4,4.3L373.9,375.4z M375.3,374.8l10.3-1.9c0.2,1.8,0.3,3.7,0.5,5.7L375.3,374.8z M385.5,371.9l-10.2,1.8
				l9.9-5.2C385.3,369.7,385.4,370.8,385.5,371.9z M356,403.6l12.8-21.7l-11.4,26.7l-1.7-1.6C355.8,405.8,355.9,404.7,356,403.6z
				 M370.3,380.7l-8,32.4l-4.2-3.9L370.3,380.7z M371,382l-3.8,35.8l-4.1-3.9L371,382z M371.7,384.7l-0.1,37.3l-3.5-3.3L371.7,384.7
				z M372.7,384.7l3.4,34l-3.5,3.2L372.7,384.7z M377,417.8l-3.6-35.8l7.7,31.9L377,417.8z M382,413.2l-7.8-32.5l12,28.6L382,413.2z
				 M387,408.6l-11.2-26.8l12.6,21.8c0.1,1.1,0.2,2.3,0.3,3.4L387,408.6z M385.1,367.5l-9.9,5.2l9.5-9.5
				C384.9,364.5,385,366,385.1,367.5z M372.3,364.4l-28.1-28.3l28.3-28.1l28.1,28.3L372.3,364.4z M359.5,309.6l8-11.2l-3.5,6.7
				L359.5,309.6z M371.3,293.2l-2.4,7.1l-2.5,2.5L371.3,293.2z M372.1,294v2.9h0.2l-1.8,1.8L372.1,294z M373.1,296.9V294l1.7,5
				l-2.1-2.1H373.1z M376.4,300.6l-2.5-7.5l5.4,10.3L376.4,300.6z M381.5,305.8l-3.9-7.5l9,12.6L381.5,305.8z M379.3,299l29.4,34.2
				L391,315.3L379.3,299z M355.3,313.8l-15.1,15l25.6-29.8L355.3,313.8z M324.4,345.7l-0.8-4.6l38.6-39.4L324.4,345.7z M333.4,336.7
				l3.2,3.3l-5,7.1l-6.7-0.4L333.4,336.7z M337.4,340.6l3.8,3.8l-1.8,3.1l-6.5-0.4L337.4,340.6z M341.9,345.1l2.7,2.7l-4.1-0.3
				L341.9,345.1z M403.2,344.9l1.6,2.8l-4.7,0.3L403.2,344.9z M405.9,347.6l-2-3.4l3.8-3.7l4.8,6.8L405.9,347.6z M413.6,347.2
				l-5.3-7.4l3.2-3.2l8.6,10l-0.1,0.3L413.6,347.2z M420.4,345.2L383,301.7l38.2,39L420.4,345.2z M421.4,339.5L385,302.4l37,33.6
				L421.4,339.5z M323.4,339.8l-0.6-3.5l37.3-33.9L323.4,339.8z M422.2,334.8l-37.6-34.2l38.2,30.6L422.2,334.8z M322.6,335.1
				l-0.6-3.7l38.6-30.8L322.6,335.1z M319.7,342.1L255,342l117.1,105.6l117.6-105l-64.7-0.2l1.8-10.3l92,3.1L372,457.2l-146.5-123
				l92.5-2.3L319.7,342.1z M423.7,326.5l-0.6,3.6l-34.2-27.3L423.7,326.5z M321.8,330.3l-0.7-4.1l37.4-25.2L321.8,330.3z
				 M316.7,324.3l0.1,0.5l-129.5,7l-18.6-13.9l159.8-1.5L316.7,324.3z M191.6,335l18.1-0.5L372,463.2l162.5-127.4l18,0.6L372,469.5
				L191.6,335z M565,337.2l24.2-17.8l-0.9-1.3l12.6,0.1l1.5,0l1.1-1.1l29.5-30.5l0.9-0.9l0-1.2c0-3-0.1-6-0.1-9h-5.8
				c0,2.6-0.1,5.1-0.1,7.7l-28.5,27.6l-187.8,1.9v0.6l-39-26.6l-38.8,26.2v-0.3l-187.8-1.7l-14.1-13.7l-7.6-7.4l-3.8-3.7l-1.9-1.8
				c-0.4-0.3-0.7-0.7-1-1l-0.1-7.9h-5.8l-0.1,9.2l0,1.1l0.9,1c0.6,0.7,1.2,1.3,1.8,1.9l1.8,1.9l3.7,3.8l7.4,7.6l14.8,15.2l1,1.1
				l1.5,0l11.4-0.1l-0.1,0.1l25.5,19H91.9v-48.7c6.4-6.6,13.3-12.7,20.7-18.1c9.7-7.1,20.2-13.2,31.2-18.1l5.9-2.6l-5.7-2.8
				c-11-5.4-21.5-11.8-31.3-19.1c-7.2-5.3-14.2-11.2-20.7-17.5v-48.5H182L156.2,181l-11.9-0.1l-1.5,0l-1,1.1L127,197.2l-7.4,7.6
				l-3.7,3.8l-1.8,1.9c-0.6,0.6-1.2,1.3-1.8,1.9l-0.9,1l0,1.1l0.1,9.2h5.8l0.1-7.9c0.3-0.3,0.7-0.7,1-1l1.9-1.8l3.8-3.7l7.6-7.4
				l14.1-13.7l187.1-1.7l39.7,26.9l39.9-27l186.9,1.9l28.5,27.6c0,2.6,0.1,5.1,0.1,7.7h5.8c0-3,0.1-6,0.1-9l0-1.2l-0.9-0.9
				l-29.5-30.5l-1.1-1.1l-1.5,0l-11.9,0.1l-25.8-19.1h90.1v48.5c-6.5,6.3-13.5,12.1-20.7,17.5c-9.8,7.2-20.3,13.7-31.3,19.1
				l-5.7,2.8l5.9,2.6c11,4.9,21.5,10.9,31.2,18.1c7.4,5.4,14.3,11.5,20.7,18.1v48.7H565z M693.2,261.3c-12.5,6.6-24.6,14.2-36,22.6
				c-6.5-6.7-13.6-12.8-21.1-18.4c-8.4-6.2-17.3-11.6-26.7-16.1c9.3-4.9,18.3-10.6,26.7-16.8c7.3-5.4,14.3-11.3,20.9-17.5
				c10.6,8.1,21.9,15.5,33.7,21.8c9,4.8,18.3,9.1,27.9,12.8C709.9,253.1,701.4,257,693.2,261.3z"/>
			<path class="st0" d="M658.7,224.1l-2.3-2l-2,2.3c-4.1,4.7-8.7,8.8-13.7,12.5c-5.6,4.1-11.8,7.4-18.3,9.9l-7.4,2.8l7.4,2.8
				c6.8,2.6,13.2,6.1,19,10.4c4.7,3.5,9.1,7.5,12.9,12l2,2.4l2.3-2.1c7-6.5,14.9-11.8,23.5-15.8c6.5-3,13.4-5.2,20.5-6.6l14.4-2.8
				l-14.3-3.1c-7.3-1.6-14.3-3.9-21-7.1C673.5,235.5,665.7,230.3,658.7,224.1z M679.8,253.6c-8.3,3.8-16,8.8-22.8,14.8
				c-3.6-3.9-7.6-7.4-11.9-10.6c-4.4-3.2-9-6-13.9-8.3c4.6-2.2,9-4.8,13.1-7.8c4.6-3.3,8.8-7,12.7-11.2c6.8,5.7,14.3,10.6,22.3,14.3
				c3.7,1.7,7.4,3.2,11.3,4.5C686.9,250.6,683.3,252,679.8,253.6z"/>
			<path class="st0" d="M657.6,237.8c-1.8,2-4.4,4.4-7.8,6.7c-4,2.6-7.8,4.2-10.6,5.1c3,1.1,6.6,2.8,10.5,5.3c3.3,2.2,5.9,4.4,8,6.4
				c2.1-2.1,5-4.5,8.5-6.7c3.7-2.3,7.1-3.9,9.9-5c-3-0.9-7.1-2.5-11.4-5.5C661.6,241.9,659.3,239.7,657.6,237.8z"/>
			<path class="st0" d="M90.7,274.6c3.9-4.5,8.2-8.5,12.9-12c5.8-4.3,12.2-7.8,19-10.4l7.4-2.8l-7.4-2.8c-6.5-2.5-12.7-5.8-18.3-9.9
				c-5-3.6-9.6-7.8-13.7-12.5l-2-2.3l-2.3,2c-6.9,6.2-14.7,11.4-23.1,15.4c-6.7,3.2-13.8,5.6-21,7.1l-14.3,3.1l14.4,2.8
				c7.1,1.4,14,3.6,20.5,6.6c8.6,4,16.5,9.3,23.5,15.8l2.3,2.1L90.7,274.6z M65.3,253.6c-3.5-1.6-7.1-3-10.8-4.2
				c3.8-1.3,7.6-2.8,11.3-4.5c8-3.8,15.5-8.6,22.3-14.3c3.8,4.1,8.1,7.9,12.7,11.2c4.1,3,8.5,5.6,13.1,7.8
				c-4.9,2.3-9.6,5.1-13.9,8.3c-4.3,3.1-8.2,6.7-11.9,10.6C81.3,262.4,73.6,257.4,65.3,253.6z"/>
			<path class="st0" d="M106,249.6c-2.8-0.9-6.6-2.4-10.6-5.1c-3.4-2.3-6-4.7-7.8-6.7c-1.7,1.9-4,4.1-7,6.3c-4.3,3-8.4,4.6-11.4,5.5
				c2.8,1.1,6.3,2.7,9.9,5c3.6,2.3,6.4,4.7,8.5,6.7c2-2,4.7-4.3,8-6.4C99.4,252.3,103.1,250.7,106,249.6z"/>
			<path class="st0" d="M283.5,147.8l64.9-3.7l-4.8-49.8L283.5,147.8z M303.2,139.7l34.8-31l2.8,28.8L303.2,139.7z"/>
			<path class="st0" d="M401.5,94.2l-4.6,49.8l64.9,3.6L401.5,94.2z M407.2,108.6l34.9,30.9l-37.6-2.1L407.2,108.6z"/>
			<path class="st0" d="M343.2,405.7l4.9-49.8l-64.9-3.9L343.2,405.7z M337.6,391.2l-34.7-31.1l37.6,2.3L337.6,391.2z"/>
			<path class="st0" d="M461.5,352.6l-64.9,3.4l4.5,49.8L461.5,352.6z M441.8,360.7l-35,30.8l-2.6-28.9L441.8,360.7z"/>
			<path class="st0" d="M212.7,135.6c-19.4,0-38.9,0-58.3,0c-0.5,1-1.3,2.2-2.6,3.4c-2.6,2.4-5.6,3.1-6.9,3.3h59L212.7,135.6z"/>
			<path class="st0" d="M193.4,150.7l5.3-4.3c-13.7,0-27.4,0-41.1,0c7.9,0.9,15.7,1.9,23.6,2.8C185.2,149.7,189.3,150.2,193.4,150.7
				z"/>
			<path class="st0" d="M600.2,142.3c-1.3-0.2-4.3-0.8-6.9-3.3c-1.3-1.2-2.1-2.5-2.6-3.4c-19.4,0-38.9,0-58.3,0l8.8,6.7H600.2z"/>
			<path class="st0" d="M564,149.2c7.9-0.9,15.7-1.9,23.6-2.8c-13.7,0-27.4,0-41.1,0l5.3,4.3C555.9,150.2,560,149.7,564,149.2z"/>
			<path class="st0" d="M144.9,356.8c1.3,0.2,4.3,0.8,6.9,3.3c1.3,1.2,2.1,2.5,2.6,3.4c19.4,0,38.9,0,58.3,0l-8.8-6.7H144.9z"/>
			<path class="st0" d="M181.1,349.8c-7.9,0.9-15.7,1.9-23.6,2.8c13.7,0,27.4,0,41.1,0l-5.3-4.3
				C189.3,348.8,185.2,349.3,181.1,349.8z"/>
			<path class="st0" d="M532.4,363.4c19.4,0,38.9,0,58.3,0c0.5-1,1.3-2.2,2.6-3.4c2.6-2.4,5.6-3.1,6.9-3.3h-59L532.4,363.4z"/>
			<path class="st0" d="M551.8,348.3l-5.3,4.3c13.7,0,27.4,0,41.1,0c-7.9-0.9-15.7-1.9-23.6-2.8C560,349.3,555.9,348.8,551.8,348.3z
				"/>
		</g>
	</g>
	<defs>
		<filter id="Adobe_OpacityMaskFilter" filterUnits="userSpaceOnUse" x="9.2" y="20.5" width="726.8" height="459">
			
				<feColorMatrix  type="matrix" values="-1 0 0 0 1  0 -1 0 0 1  0 0 -1 0 1  0 0 0 1 0" color-interpolation-filters="sRGB" result="source"/>
		</filter>
	</defs>
	<mask maskUnits="userSpaceOnUse" x="9.2" y="20.5" width="726.8" height="459" id="SVGID_1_">
		<g class="st1">
			<image style="overflow:visible;" width="732" height="464" xlink:href="F37C3502.jpg"  transform="matrix(1 0 0 1 6.5797 18.5)">
			</image>
		</g>
	</mask>
	<g class="st2">
		<g>
			
				<rect x="360.1" y="151.3" transform="matrix(0.7071 -0.7071 0.7071 0.7071 -6.7217 311.4389)" class="st3" width="25" height="25"/>
			
				<rect x="360.1" y="322.7" transform="matrix(0.7071 -0.7071 0.7071 0.7071 -127.8727 361.6213)" class="st3" width="25" height="25"/>
			<path class="st3" d="M645.3,169.9l-39.5,5.4l33.5,33.8L645.3,169.9z M634.4,194.3l-13.8-14l16.3-2.2L634.4,194.3z"/>
			<path class="st3" d="M99.9,169.9l6.1,39.2l33.5-33.8L99.9,169.9z M108.3,178.1l16.3,2.2l-13.8,14L108.3,178.1z"/>
			<path class="st3" d="M605.7,323.7l39.5,5.4l-6.1-39.2L605.7,323.7z M620.6,318.6l13.8-14l2.5,16.2L620.6,318.6z"/>
			<path class="st3" d="M99.9,329.1l39.5-5.4L106,289.9L99.9,329.1z M110.8,304.7l13.8,14l-16.3,2.2L110.8,304.7z"/>
			<path class="st3" d="M183.1,213l-33,74.3h13.4l5.6-13h31.5l5.4,13h13.9l-34-74.3H183.1z M194.8,263.6h-20.1
				c-0.4,0-0.7-0.5-0.6-0.9l9.9-22.8c0.2-0.5,0.8-0.5,1.1,0l10.2,22.8C195.6,263.2,195.3,263.6,194.8,263.6z"/>
			<path class="st3" d="M261.6,213.2c-25,0-28.9,0-28.9,0v74.3h11.8v-26.4h11.6l15.6,26.4H287c0,0-13.8-21.6-17.5-28.1
				C294.9,251.7,287.8,213.1,261.6,213.2z M259.2,250.2h-13.8v-26.1h13.8c7.2,0,13,5.8,13,13v0C272.2,244.4,266.4,250.2,259.2,250.2
				z"/>
			<path class="st3" d="M328.8,213.2h-26.9v74.3h26.9c20.4,0,36.9-16.5,36.9-36.9V250C365.7,229.7,349.2,213.2,328.8,213.2z
				 M351.8,251.5c0,13.8-11.2,25-25,25h-11.5v-52.4h11.5c13.8,0,25,11.2,25,25V251.5z"/>
			<polygon class="st3" points="378.6,287.5 424.4,287.5 424.4,276.5 392,276.5 392,255.3 419.5,255.3 419.5,243.8 391.9,243.8 
				391.9,224 424.4,224 424.4,213.2 378.6,213.2 			"/>
			<path class="st3" d="M476.5,210.7c-21.5,0-39,17.9-39,38.9c0,21,17.4,40.4,39,40.4c21.5,0,39-19.6,39-40.6S498,210.7,476.5,210.7
				z M476.5,278.1c-12.8,0-24-13.3-24-28.5c0-14.6,11-27,24-27c13,0,24,12.3,24,26.8C500.5,264.7,489.3,278.1,476.5,278.1z"/>
			<polygon class="st3" points="581,260 579.9,260 534.2,213.2 532.1,213.2 532.1,287.5 543.5,287.5 543.5,241.3 545.1,241.3 
				589.8,287.5 593.2,287.5 593.2,213.2 580.5,213.2 			"/>
			<path class="st3" d="M728.1,246.8c-11.9-4.1-23.5-9.2-34.6-15.2c-11.6-6.2-22.8-13.5-33.3-21.5v-55.2H553.7L372.6,20.5
				L191.5,154.8H84.9v55.2c-10.5,8.1-21.6,15.3-33.3,21.5c-11.1,5.9-22.7,11-34.6,15.2l-7.9,2.8l7.9,2.9c11,4,21.8,8.8,32.1,14.2
				c12.4,6.5,24.4,14.1,35.7,22.5v55h105.6L372,479.5l183.5-135.3h104.8v-55c11.3-8.4,23.3-16,35.7-22.5
				c10.3-5.4,21.2-10.2,32.1-14.2l7.9-2.9L728.1,246.8z M188.1,167.3l128.9,7.8l-0.1,0.5l10.3,7l-157.8-1.5L188.1,167.3z
				 M423.8,149.6l-27.6-1.8l0,0.1l-5.7-5.7c0.5-4.2,1.6-16,4.7-50.1l0.1-1.5l-22.7-21.3l-22.7,21.3l0.1,1.5
				c3.1,34.1,4.2,45.9,4.7,50.1L349,148l0-0.1l-27.6,1.8l-0.4,2.1h-50.1l101.7-91.2l101.7,91.2h-50.1L423.8,149.6z M375.5,127.3
				l9.9,5.2c-0.1,1.6-0.3,3-0.4,4.3L375.5,127.3z M356.6,98.8l12.7,21.7l-12-14.1C357,103.8,356.8,101.2,356.6,98.8z M369.8,122.7
				l-11.8-8c-0.2-2.2-0.4-4.4-0.6-6.6L369.8,122.7z M385.5,131.5l-9.9-5.2l10.2,1.9C385.8,129.3,385.7,130.4,385.5,131.5z
				 M386,127.1l-10.3-1.9l10.9-3.8C386.3,123.4,386.1,125.3,386,127.1z M386.6,120.3l-12.3,4.3L387,116
				C386.9,117.4,386.7,118.9,386.6,120.3z M387.9,106.4l-12,14.1l12.7-21.7C388.3,101.2,388.1,103.8,387.9,106.4z M387.7,108.1
				c-0.2,2.2-0.4,4.4-0.6,6.6l-11.8,8L387.7,108.1z M370.9,124.6l-12.3-4.3c-0.1-1.4-0.3-2.9-0.4-4.3L370.9,124.6z M369.5,125.2
				l-10.3,1.9c-0.2-1.8-0.4-3.7-0.5-5.7L369.5,125.2z M359.3,128.1l10.2-1.9l-9.9,5.2C359.5,130.4,359.4,129.3,359.3,128.1z
				 M388.8,96.4l-12.7,21.8l11.3-26.7l1.7,1.6C389,94.2,388.9,95.3,388.8,96.4z M374.5,119.3l7.9-32.4l4.2,3.9L374.5,119.3z
				 M373.8,118l3.7-35.8l4.1,3.9L373.8,118z M373.1,115.4V78.1l3.5,3.3L373.1,115.4z M372.1,115.4l-3.5-34l3.5-3.3V115.4z
				 M367.7,82.2l3.7,35.8l-7.8-31.9L367.7,82.2z M362.7,86.8l7.9,32.4l-12.1-28.5L362.7,86.8z M357.8,91.5l11.3,26.7l-12.7-21.8
				c-0.1-1.1-0.2-2.3-0.3-3.4L357.8,91.5z M359.7,132.5l9.9-5.2l-9.5,9.5C360,135.5,359.9,134.1,359.7,132.5z M372.6,135.7
				l28.2,28.2L372.6,192l-28.2-28.2L372.6,135.7z M383.6,192.3l-5.9,8.3l2.6-5L383.6,192.3z M373.8,205.9l1.9-5.7l2.1-2.1
				L373.8,205.9z M373.1,205v-2.1l1.1-1.1L373.1,205z M372.1,205l-1.2-3.3l1.2,1.2V205z M369.3,200.1l2,5.7l-4-7.8L369.3,200.1z
				 M364.9,195.7l2.6,5l-5.9-8.3L364.9,195.7z M365.8,200l-21.1-24.6l12.6,12.6L365.8,200z M387.9,188l12.6-12.6L379.3,200
				L387.9,188z M408,159.8l4.9-6.9l6.6,0.4l-8.3,9.6L408,159.8z M407.3,159l-3.7-3.7l1.7-2.9l6.4,0.4L407.3,159z M402.8,154.6
				l-2.5-2.5l3.8,0.2L402.8,154.6z M342.3,154.6l-1.3-2.3l3.8-0.2L342.3,154.6z M339.9,152.4l1.7,2.9l-3.7,3.7l-4.4-6.2L339.9,152.4
				z M332.3,152.9l4.9,6.9L334,163l-8.3-9.6L332.3,152.9z M324.7,153.7l8.5,9.9l-0.2,0.2l2.2,2.2l26.9,31.3l-38.3-39L324.7,153.7z
				 M409.9,166l2.2-2.2l-0.2-0.2l8.5-9.9l0.8,4.5l-38.3,39L409.9,166z M322.9,164.2l37.6,34.2l-38.3-30.6L322.9,164.2z M323.1,163
				l0.6-3.5l36.4,37.1L323.1,163z M421.4,159.5l0.6,3.5l-37,33.6L421.4,159.5z M422.2,164.2l0.6,3.6l-38.3,30.6L422.2,164.2z
				 M425.2,157.8h64.7L372.6,52.5L255.2,157.8H320l-1.8,10.3l-92-2.9L372.6,42.9l146.8,122.6l-92.4,2.6L425.2,157.8z M321.3,173.7
				l0.8-4.8l43.8,35L321.3,173.7z M423.1,168.9l0.8,4.8l-44.6,30.2L423.1,168.9z M428.3,175.6l-0.1-0.5l129.5-7.3l18,13.3
				l-157.9,1.6L428.3,175.6z M553.4,164.5l-18.1,0.5L372.6,36.8L210.4,164.7l-18-0.6L372.6,30.5L553.4,164.5z M26.6,249.7
				c9.5-3.7,18.9-8,27.9-12.8c11.8-6.3,23.1-13.6,33.7-21.8c6.6,6.3,13.6,12.2,20.9,17.5c8.4,6.2,17.4,11.9,26.7,16.8
				c-9.4,4.6-18.3,10-26.7,16.1c-7.5,5.5-14.6,11.7-21.1,18.4c-11.4-8.4-23.5-16-36-22.6C43.8,257,35.3,253.1,26.6,249.7z
				 M556.8,333.2L428,325.1l0.1-0.5l-12.2-8.3l161.7,1.6L556.8,333.2z M321.1,350.3l27.6,1.8l0-0.1l5.7,5.7
				c-0.5,4.2-1.7,16-4.8,50.1l-0.1,1.5l22.7,21.4l22.8-21.2l-0.1-1.5c-3-34.1-4.1-45.9-4.6-50.1l5.7-5.7l0,0.1l27.6-1.7l0.4-2.1
				l50.1,0.1l-101.9,90.9L270.7,348l50.1,0.1L321.1,350.3z M369.3,372.7l-9.9-5.3c0.2-1.6,0.3-3,0.4-4.2L369.3,372.7z M388.2,401.3
				l-12.6-21.8l12,14.2C387.7,396.3,387.9,398.8,388.2,401.3z M375,377.3l11.7,8c0.2,2.2,0.4,4.4,0.6,6.6L375,377.3z M359.3,368.5
				l9.8,5.2l-10.2-1.9C359.1,370.7,359.2,369.6,359.3,368.5z M358.9,372.9l10.3,1.9l-10.9,3.8C358.5,376.6,358.7,374.7,358.9,372.9z
				 M358.2,379.7l12.4-4.3l-12.8,8.6C357.9,382.6,358.1,381.1,358.2,379.7z M356.9,393.6l12-14.1l-12.7,21.7
				C356.4,398.7,356.7,396.2,356.9,393.6z M357.1,391.9c0.2-2.2,0.4-4.4,0.6-6.6l11.8-8L357.1,391.9z M373.9,375.4l12.3,4.4
				c0.1,1.4,0.3,2.9,0.4,4.3L373.9,375.4z M375.3,374.8l10.3-1.9c0.2,1.8,0.3,3.7,0.5,5.7L375.3,374.8z M385.5,371.9l-10.2,1.8
				l9.9-5.2C385.3,369.7,385.4,370.8,385.5,371.9z M356,403.6l12.8-21.7l-11.4,26.7l-1.7-1.6C355.8,405.8,355.9,404.7,356,403.6z
				 M370.3,380.7l-8,32.4l-4.2-3.9L370.3,380.7z M371,382l-3.8,35.8l-4.1-3.9L371,382z M371.7,384.7l-0.1,37.3l-3.5-3.3L371.7,384.7
				z M372.7,384.7l3.4,34l-3.5,3.2L372.7,384.7z M377,417.8l-3.6-35.8l7.7,31.9L377,417.8z M382,413.2l-7.8-32.5l12,28.6L382,413.2z
				 M387,408.6l-11.2-26.8l12.6,21.8c0.1,1.1,0.2,2.3,0.3,3.4L387,408.6z M385.1,367.5l-9.9,5.2l9.5-9.5
				C384.9,364.5,385,366,385.1,367.5z M372.3,364.4l-28.1-28.3l28.3-28.1l28.1,28.3L372.3,364.4z M359.5,309.6l8-11.2l-3.5,6.7
				L359.5,309.6z M371.3,293.2l-2.4,7.1l-2.5,2.5L371.3,293.2z M372.1,294v2.9h0.2l-1.8,1.8L372.1,294z M373.1,296.9V294l1.7,5
				l-2.1-2.1H373.1z M376.4,300.6l-2.5-7.5l5.4,10.3L376.4,300.6z M381.5,305.8l-3.9-7.5l9,12.6L381.5,305.8z M379.3,299l29.4,34.2
				L391,315.3L379.3,299z M355.3,313.8l-15.1,15l25.6-29.8L355.3,313.8z M324.4,345.7l-0.8-4.6l38.6-39.4L324.4,345.7z M333.4,336.7
				l3.2,3.3l-5,7.1l-6.7-0.4L333.4,336.7z M337.4,340.6l3.8,3.8l-1.8,3.1l-6.5-0.4L337.4,340.6z M341.9,345.1l2.7,2.7l-4.1-0.3
				L341.9,345.1z M403.2,344.9l1.6,2.8l-4.7,0.3L403.2,344.9z M405.9,347.6l-2-3.4l3.8-3.7l4.8,6.8L405.9,347.6z M413.6,347.2
				l-5.3-7.4l3.2-3.2l8.6,10l-0.1,0.3L413.6,347.2z M420.4,345.2L383,301.7l38.2,39L420.4,345.2z M421.4,339.5L385,302.4l37,33.6
				L421.4,339.5z M323.4,339.8l-0.6-3.5l37.3-33.9L323.4,339.8z M422.2,334.8l-37.6-34.2l38.2,30.6L422.2,334.8z M322.6,335.1
				l-0.6-3.7l38.6-30.8L322.6,335.1z M319.7,342.1L255,342l117.1,105.6l117.6-105l-64.7-0.2l1.8-10.3l92,3.1L372,457.2l-146.5-123
				l92.5-2.3L319.7,342.1z M423.7,326.5l-0.6,3.6l-34.2-27.3L423.7,326.5z M321.8,330.3l-0.7-4.1l37.4-25.2L321.8,330.3z
				 M316.7,324.3l0.1,0.5l-129.5,7l-18.6-13.9l159.8-1.5L316.7,324.3z M191.6,335l18.1-0.5L372,463.2l162.5-127.4l18,0.6L372,469.5
				L191.6,335z M565,337.2l24.2-17.8l-0.9-1.3l12.6,0.1l1.5,0l1.1-1.1l29.5-30.5l0.9-0.9l0-1.2c0-3-0.1-6-0.1-9h-5.8
				c0,2.6-0.1,5.1-0.1,7.7l-28.5,27.6l-187.8,1.9v0.6l-39-26.6l-38.8,26.2v-0.3l-187.8-1.7l-14.1-13.7l-7.6-7.4l-3.8-3.7l-1.9-1.8
				c-0.4-0.3-0.7-0.7-1-1l-0.1-7.9h-5.8l-0.1,9.2l0,1.1l0.9,1c0.6,0.7,1.2,1.3,1.8,1.9l1.8,1.9l3.7,3.8l7.4,7.6l14.8,15.2l1,1.1
				l1.5,0l11.4-0.1l-0.1,0.1l25.5,19H91.9v-48.7c6.4-6.6,13.3-12.7,20.7-18.1c9.7-7.1,20.2-13.2,31.2-18.1l5.9-2.6l-5.7-2.8
				c-11-5.4-21.5-11.8-31.3-19.1c-7.2-5.3-14.2-11.2-20.7-17.5v-48.5H182L156.2,181l-11.9-0.1l-1.5,0l-1,1.1L127,197.2l-7.4,7.6
				l-3.7,3.8l-1.8,1.9c-0.6,0.6-1.2,1.3-1.8,1.9l-0.9,1l0,1.1l0.1,9.2h5.8l0.1-7.9c0.3-0.3,0.7-0.7,1-1l1.9-1.8l3.8-3.7l7.6-7.4
				l14.1-13.7l187.1-1.7l39.7,26.9l39.9-27l186.9,1.9l28.5,27.6c0,2.6,0.1,5.1,0.1,7.7h5.8c0-3,0.1-6,0.1-9l0-1.2l-0.9-0.9
				l-29.5-30.5l-1.1-1.1l-1.5,0l-11.9,0.1l-25.8-19.1h90.1v48.5c-6.5,6.3-13.5,12.1-20.7,17.5c-9.8,7.2-20.3,13.7-31.3,19.1
				l-5.7,2.8l5.9,2.6c11,4.9,21.5,10.9,31.2,18.1c7.4,5.4,14.3,11.5,20.7,18.1v48.7H565z M693.2,261.3c-12.5,6.6-24.6,14.2-36,22.6
				c-6.5-6.7-13.6-12.8-21.1-18.4c-8.4-6.2-17.3-11.6-26.7-16.1c9.3-4.9,18.3-10.6,26.7-16.8c7.3-5.4,14.3-11.3,20.9-17.5
				c10.6,8.1,21.9,15.5,33.7,21.8c9,4.8,18.3,9.1,27.9,12.8C709.9,253.1,701.4,257,693.2,261.3z"/>
			<path class="st3" d="M658.7,224.1l-2.3-2l-2,2.3c-4.1,4.7-8.7,8.8-13.7,12.5c-5.6,4.1-11.8,7.4-18.3,9.9l-7.4,2.8l7.4,2.8
				c6.8,2.6,13.2,6.1,19,10.4c4.7,3.5,9.1,7.5,12.9,12l2,2.4l2.3-2.1c7-6.5,14.9-11.8,23.5-15.8c6.5-3,13.4-5.2,20.5-6.6l14.4-2.8
				l-14.3-3.1c-7.3-1.6-14.3-3.9-21-7.1C673.5,235.5,665.7,230.3,658.7,224.1z M679.8,253.6c-8.3,3.8-16,8.8-22.8,14.8
				c-3.6-3.9-7.6-7.4-11.9-10.6c-4.4-3.2-9-6-13.9-8.3c4.6-2.2,9-4.8,13.1-7.8c4.6-3.3,8.8-7,12.7-11.2c6.8,5.7,14.3,10.6,22.3,14.3
				c3.7,1.7,7.4,3.2,11.3,4.5C686.9,250.6,683.3,252,679.8,253.6z"/>
			<path class="st3" d="M657.6,237.8c-1.8,2-4.4,4.4-7.8,6.7c-4,2.6-7.8,4.2-10.6,5.1c3,1.1,6.6,2.8,10.5,5.3c3.3,2.2,5.9,4.4,8,6.4
				c2.1-2.1,5-4.5,8.5-6.7c3.7-2.3,7.1-3.9,9.9-5c-3-0.9-7.1-2.5-11.4-5.5C661.6,241.9,659.3,239.7,657.6,237.8z"/>
			<path class="st3" d="M90.7,274.6c3.9-4.5,8.2-8.5,12.9-12c5.8-4.3,12.2-7.8,19-10.4l7.4-2.8l-7.4-2.8c-6.5-2.5-12.7-5.8-18.3-9.9
				c-5-3.6-9.6-7.8-13.7-12.5l-2-2.3l-2.3,2c-6.9,6.2-14.7,11.4-23.1,15.4c-6.7,3.2-13.8,5.6-21,7.1l-14.3,3.1l14.4,2.8
				c7.1,1.4,14,3.6,20.5,6.6c8.6,4,16.5,9.3,23.5,15.8l2.3,2.1L90.7,274.6z M65.3,253.6c-3.5-1.6-7.1-3-10.8-4.2
				c3.8-1.3,7.6-2.8,11.3-4.5c8-3.8,15.5-8.6,22.3-14.3c3.8,4.1,8.1,7.9,12.7,11.2c4.1,3,8.5,5.6,13.1,7.8
				c-4.9,2.3-9.6,5.1-13.9,8.3c-4.3,3.1-8.2,6.7-11.9,10.6C81.3,262.4,73.6,257.4,65.3,253.6z"/>
			<path class="st3" d="M106,249.6c-2.8-0.9-6.6-2.4-10.6-5.1c-3.4-2.3-6-4.7-7.8-6.7c-1.7,1.9-4,4.1-7,6.3c-4.3,3-8.4,4.6-11.4,5.5
				c2.8,1.1,6.3,2.7,9.9,5c3.6,2.3,6.4,4.7,8.5,6.7c2-2,4.7-4.3,8-6.4C99.4,252.3,103.1,250.7,106,249.6z"/>
			<path class="st3" d="M283.5,147.8l64.9-3.7l-4.8-49.8L283.5,147.8z M303.2,139.7l34.8-31l2.8,28.8L303.2,139.7z"/>
			<path class="st3" d="M401.5,94.2l-4.6,49.8l64.9,3.6L401.5,94.2z M407.2,108.6l34.9,30.9l-37.6-2.1L407.2,108.6z"/>
			<path class="st3" d="M343.2,405.7l4.9-49.8l-64.9-3.9L343.2,405.7z M337.6,391.2l-34.7-31.1l37.6,2.3L337.6,391.2z"/>
			<path class="st3" d="M461.5,352.6l-64.9,3.4l4.5,49.8L461.5,352.6z M441.8,360.7l-35,30.8l-2.6-28.9L441.8,360.7z"/>
			<path class="st3" d="M212.7,135.6c-19.4,0-38.9,0-58.3,0c-0.5,1-1.3,2.2-2.6,3.4c-2.6,2.4-5.6,3.1-6.9,3.3h59L212.7,135.6z"/>
			<path class="st3" d="M193.4,150.7l5.3-4.3c-13.7,0-27.4,0-41.1,0c7.9,0.9,15.7,1.9,23.6,2.8C185.2,149.7,189.3,150.2,193.4,150.7
				z"/>
			<path class="st3" d="M600.2,142.3c-1.3-0.2-4.3-0.8-6.9-3.3c-1.3-1.2-2.1-2.5-2.6-3.4c-19.4,0-38.9,0-58.3,0l8.8,6.7H600.2z"/>
			<path class="st3" d="M564,149.2c7.9-0.9,15.7-1.9,23.6-2.8c-13.7,0-27.4,0-41.1,0l5.3,4.3C555.9,150.2,560,149.7,564,149.2z"/>
			<path class="st3" d="M144.9,356.8c1.3,0.2,4.3,0.8,6.9,3.3c1.3,1.2,2.1,2.5,2.6,3.4c19.4,0,38.9,0,58.3,0l-8.8-6.7H144.9z"/>
			<path class="st3" d="M181.1,349.8c-7.9,0.9-15.7,1.9-23.6,2.8c13.7,0,27.4,0,41.1,0l-5.3-4.3
				C189.3,348.8,185.2,349.3,181.1,349.8z"/>
			<path class="st3" d="M532.4,363.4c19.4,0,38.9,0,58.3,0c0.5-1,1.3-2.2,2.6-3.4c2.6-2.4,5.6-3.1,6.9-3.3h-59L532.4,363.4z"/>
			<path class="st3" d="M551.8,348.3l-5.3,4.3c13.7,0,27.4,0,41.1,0c-7.9-0.9-15.7-1.9-23.6-2.8C560,349.3,555.9,348.8,551.8,348.3z
				"/>
		</g>
	</g>
</g>
</svg>
