<?xml version="1.0" encoding="utf-8"?>
<!-- Generator: Adobe Illustrator 19.2.1, SVG Export Plug-In . SVG Version: 6.00 Build 0)  -->
<svg version="1.1" id="Layer_1" xmlns="http://www.w3.org/2000/svg" xmlns:xlink="http://www.w3.org/1999/xlink" x="0px" y="0px"
	 viewBox="0 0 1180 310" style="enable-background:new 0 0 1180 310;" xml:space="preserve">
<style type="text/css">
	.st0{fill:#A4A4A4;}
</style>
<g id="Layer_4">
	<path class="st0" d="M33.3,33.3H16V16h17.3V33.3z M18,31.3h13.3V18H18V31.3z"/>
	<path class="st0" d="M33.3,33.3H16V16h17.3V33.3z M18,31.3h13.3V18H18V31.3z"/>
	<path class="st0" d="M1164,294H16V16h1148V294z M18,292h1144V18H18V292z"/>
	<path class="st0" d="M18,18H0.7V0.7H18V18z M2.7,16H16V2.7H2.7V16z"/>
	<rect x="0.7" y="28.5" class="st0" width="2" height="126.5"/>
	<rect x="28.7" y="0.7" class="st0" width="561.3" height="2"/>
	<path class="st0" d="M1164,33.3h-17.3V16h17.3V33.3z M1148.7,31.3h13.3V18h-13.3V31.3z"/>
	<path class="st0" d="M1179.3,18H1162V0.7h17.3V18z M1164,16h13.3V2.7H1164V16z"/>
	<rect x="1177.3" y="28.5" class="st0" width="2" height="126.5"/>
	<rect x="590" y="0.7" class="st0" width="561.3" height="2"/>
	<path class="st0" d="M33.3,294H16v-17.3h17.3V294z M18,292h13.3v-13.3H18V292z"/>
	<path class="st0" d="M18,309.3H0.7V292H18V309.3z M2.7,307.3H16V294H2.7V307.3z"/>
	<rect x="0.7" y="155" class="st0" width="2" height="126.5"/>
	<rect x="28.7" y="307.3" class="st0" width="561.3" height="2"/>
	<path class="st0" d="M1164,294h-17.3v-17.3h17.3V294z M1148.7,292h13.3v-13.3h-13.3V292z"/>
	<path class="st0" d="M1179.3,309.3H1162V292h17.3V309.3z M1164,307.3h13.3V294H1164V307.3z"/>
	<rect x="1177.3" y="155" class="st0" width="2" height="126.5"/>
	<rect x="590" y="307.3" class="st0" width="561.3" height="2"/>
</g>
</svg>
