<svg aria-hidden="true" style="position: absolute; width: 0; height: 0; overflow: hidden;" version="1.1" xmlns="http://www.w3.org/2000/svg" xmlns:xlink="http://www.w3.org/1999/xlink">
<defs>
<symbol id="icon-top-arrow" viewBox="0 0 32 32">
    <path d="M26.44 23.52l-10.44-9.080-10.44 9.080-2.6-3.040 13.040-11.32 13.040 11.32z"></path>
</symbol>
<symbol id="icon-close" viewBox="0 0 32 32">
    <path d="M29.2 27.1l-11-11.1 10.9-10.9-2.1-2.1-10.9 10.9-11-10.9-2.1 2.1 10.9 10.9-11 11.1 2.1 2.1 11.1-11 11 11z"></path>
</symbol>
<symbol id="icon-email" viewBox="0 0 32 32">
    <path d="M29 5.9h-26c-1 0-1.8 0.8-1.8 1.8v16.6c0 1 0.8 1.8 1.8 1.8h26c1 0 1.8-0.8 1.8-1.8v-16.5c0-1-0.8-1.9-1.8-1.9zM16.6 17.6c-0.3 0.3-0.7 0.3-1 0l-11.9-10.2h24.1l-11.2 10.2zM11.4 16l-8.7 7.5v-15l8.7 7.5zM12.6 17l2.1 1.8c0.4 0.4 0.9 0.5 1.5 0.5 0.5 0 1.1-0.2 1.5-0.6l1.9-1.7 8.8 7.7h-24.8l9-7.7zM20.6 16l8.7-7.9v15.4l-8.7-7.5z"></path>
</symbol>
<symbol id="icon-phone-number" viewBox="0 0 32 32">
    <path d="M31.4 23.8c-0.2-0.8-0.7-1.4-1.7-2-2.6-1.6-3.8-2.1-5.7-3-2.3-1.1-3.2 0.7-3.6 1.3l-0.3 0.6c-0.1 0.2-0.2 0.3-0.3 0.6-0.1 0.1-0.1 0.2-0.2 0.3s-0.2 0.3-0.3 0.4c-0.8-0.5-6.9-4.4-9.4-9.3 0-0.1 0.3-0.5 1.2-0.9 0.9-0.3 1.3-0.9 1.4-1.4 0.5-1.1-0.2-2.4-0.5-2.7-0.8-1.7-2.2-4.5-2.7-5.6-0.4-0.8-0.9-1.3-1.4-1.5-0.4-0.1-0.9-0.2-1.5 0.2v0c0 0-1.2 0.7-2.8 1.5l-0.1 0.1c-2.1 1.6-3 4.1-2.6 7.1 0.9 7.3 9.1 17.2 17.3 20.7 2 0.9 3.9 1.3 5.5 1.3 2 0 3.8-0.6 5.3-1.9l0.2-0.2c0.3-0.6 0.6-1.1 0.9-1.6 0.9-1.6 1.6-2.8 1.3-4zM23.5 20.4c1.8 0.8 3 1.4 5.5 2.9 0.6 0.4 0.9 0.7 1 0.9 0.1 0.3-0.1 0.7-0.3 1.2l-8-4 0.2-0.5c0.3-0.6 0.5-1 1.6-0.5zM7.1 2.2c0.1 0 0.2-0.1 0.2-0.1s0.2 0.1 0.5 0.7c0.5 1.1 1.9 4 2.8 5.7 0.4 0.5 0.5 1.1 0.5 1.4 0 0.1-0.1 0.2-0.5 0.4-0.2 0.1-0.3 0.2-0.5 0.2l-3.6-7.9-1 0.5c0.9-0.5 1.6-0.8 1.6-0.9zM27.9 28.4c-2.8 2.2-6.5 1.4-9.2 0.2-7.6-3.2-15.5-12.6-16.3-19.3-0.3-2.4 0.4-4.3 2-5.5 0.3-0.1 0.5-0.3 0.7-0.4l3.8 8.1c-0.4 0.5-0.6 1.1-0.4 1.8l0.1 0.1c2.8 5.7 9.9 10 10.2 10.2 1 0.6 1.7-0.1 2-0.7l8 4c0 0 0 0 0 0.1-0.3 0.4-0.6 0.9-0.9 1.4z"></path>
</symbol>
<symbol id="icon-title" viewBox="0 0 32 32">
    <path d="M2.2 17.9l13.8 13.8 13.8-13.8-13.7-13.9-13.9 13.9zM16.1 23.7l-3.1 3.1-2.5-2.5 5.6-5.6 5.6 5.6-2.5 2.5-3.1-3.1zM16.1 17l-6.5 6.5-2.3-2.3 8.7-8.7 8.7 8.7-2.3 2.3-6.3-6.5zM25.7 20.3l-9.6-9.6-9.6 9.6-2.5-2.4 12-12 12 12-2.3 2.4z"></path>
    <path d="M30.1 13.9c-0.1 0-0.3 0-0.4 0.1l-13.6-13.7-13.7 13.7c-0.1 0-0.2-0.1-0.3-0.1-0.7 0-1.3 0.6-1.3 1.3s0.6 1.3 1.3 1.3 1.3-0.6 1.3-1.3c0-0.1 0-0.3-0.1-0.4l12.8-12.7 12.8 12.8c0 0.1-0.1 0.2-0.1 0.4 0 0.7 0.6 1.3 1.3 1.3s1.3-0.6 1.3-1.3c0-0.8-0.6-1.4-1.3-1.4z"></path>
</symbol>
<symbol id="icon-user-name" viewBox="0 0 32 32">
    <path d="M18.9 31.8c-1.3 0-2.4 0-2.9-0.1-2.2 0.1-12.7 0.4-14.5-2l-0.1-0.2c-0.7-1.7-0.2-4 1.4-6.3 1.9-2.8 5.6-5.8 9.2-5.6h0.1l0.1 0.1c2.5 1.1 4.9 1.1 7.4 0l0.3-0.1c3.7-0.2 7.3 2.8 9.2 5.6 1.6 2.3 2.1 4.6 1.4 6.3l-0.1 0.2c-1.3 1.8-7.5 2.1-11.5 2.1zM2.8 28.8c1 1.1 7.6 1.6 13.1 1.4v0 0c5.6 0.2 12.1-0.2 13.1-1.4 0.4-1.2 0-2.9-1.2-4.7-1.7-2.5-4.8-4.9-7.7-4.9 0 0 0 0-0.1 0-2.8 1.2-5.6 1.2-8.4 0 0 0 0 0-0.1 0-2.8 0-6 2.4-7.7 4.9-1 1.8-1.4 3.5-1 4.7z"></path>
    <path d="M16 16.7c-4.5 0-8.2-3.7-8.2-8.2s3.7-8.2 8.2-8.2 8.2 3.7 8.2 8.2-3.7 8.2-8.2 8.2zM16 1.9c-3.6 0-6.6 3-6.6 6.6s3 6.6 6.6 6.6 6.6-3 6.6-6.6-3-6.6-6.6-6.6z"></path>
</symbol>
<symbol id="icon-Menu" viewBox="0 0 32 32">
    <path d="M2.6 2h27.4v5.8h-27.4v-5.8z"></path>
    <path d="M2.6 24h27.4v5.8h-27.4v-5.8z"></path>
    <path d="M2.4 13h27.4v5.8h-27.4v-5.8z"></path>
</symbol>
<symbol id="icon-flowr-menu" viewBox="0 0 6 32">
    <path d="M0.662 25.505c0.005-0.022 0.008-0.047 0.008-0.072s-0.003-0.051-0.008-0.075l0 0.002c-0.056 0.035-0.124 0.056-0.197 0.056s-0.141-0.021-0.198-0.057l0.002 0.001c-0.105-0.072-0.174-0.191-0.174-0.326 0-0.070 0.018-0.136 0.051-0.193l-0.001 0.002c0.060-0.116 0.153-0.208 0.265-0.267l0.003-0.002c0.088-0.033 0.191-0.053 0.298-0.053 0.272 0 0.514 0.125 0.673 0.32l0.001 0.002c-0.112-0.236-0.321-0.41-0.573-0.474l-0.006-0.001c-0.047-0.010-0.1-0.016-0.155-0.016-0.313 0-0.581 0.193-0.691 0.466l-0.002 0.005c-0.016 0.050-0.026 0.107-0.026 0.167 0 0.186 0.091 0.351 0.231 0.452l0.002 0.001c0.075 0.073 0.177 0.118 0.289 0.118 0.076 0 0.148-0.021 0.209-0.057l-0.002 0.001z"></path>
    <path d="M1.2 29.187c-0.064 0.029-0.139 0.046-0.217 0.046s-0.153-0.017-0.221-0.047l0.003 0.001c-0.122-0.123-0.198-0.293-0.198-0.481 0-0.128 0.035-0.247 0.096-0.35l-0.002 0.003c0.163-0.346 0.494-0.588 0.886-0.62l0.004-0c0.382 0.004 0.738 0.111 1.044 0.295l-0.009-0.005c-0.187-0.226-0.456-0.378-0.76-0.413l-0.005-0c-0.067-0.012-0.144-0.019-0.223-0.019-0.335 0-0.642 0.125-0.875 0.33l0.001-0.001c-0.204 0.183-0.332 0.447-0.332 0.741 0 0.016 0 0.032 0.001 0.047l-0-0.002c0.014 0.246 0.161 0.454 0.368 0.557l0.004 0.002c0.038 0.009 0.081 0.015 0.125 0.015 0.116 0 0.223-0.037 0.311-0.099l-0.002 0.001z"></path>
    <path d="M0.827 31.028c0.054-0.184 0.182-0.332 0.348-0.412l0.004-0.002c0.061-0.024 0.132-0.038 0.207-0.038s0.145 0.014 0.211 0.040l-0.004-0.001c0.082 0.033 0.151 0.082 0.206 0.144l0 0.001c-0.037-0.066-0.085-0.121-0.143-0.165l-0.001-0.001c-0.074-0.057-0.167-0.094-0.267-0.103l-0.002-0c-0.020-0.002-0.044-0.003-0.067-0.003-0.203 0-0.386 0.089-0.511 0.23l-0.001 0.001c-0.113 0.13-0.182 0.301-0.182 0.487 0 0.055 0.006 0.108 0.017 0.159l-0.001-0.005c0.047 0.228 0.183 0.418 0.369 0.536l0.003 0.002c0.137 0.087 0.303 0.138 0.482 0.138 0.056 0 0.111-0.005 0.165-0.015l-0.006 0.001c-0.016 0.001-0.034 0.002-0.052 0.002-0.238 0-0.453-0.095-0.61-0.25l0 0c-0.124-0.136-0.2-0.317-0.2-0.516 0-0.082 0.013-0.16 0.036-0.234l-0.001 0.005z"></path>
    <path d="M2.42 8.171v0z"></path>
    <path d="M4.923 29.249c-0.133 0.112-0.282 0.215-0.441 0.303l-0.014 0.007c0.103 0 0.414 0 0.579 0s-0.124-0.352-0.124-0.31z"></path>
    <path d="M5.13 5.937v0c-0.118 0.078-0.263 0.125-0.419 0.125-0.013 0-0.025-0-0.038-0.001l0.002 0h-0.248c-0.051 0.023-0.093 0.058-0.123 0.102l-0.001 0.001c-0.007 0.022-0.011 0.047-0.011 0.072s0.004 0.051 0.011 0.074l-0-0.002c-0.005 0.022-0.008 0.047-0.008 0.072s0.003 0.051 0.008 0.075l-0-0.002c0.037 0.013 0.080 0.021 0.124 0.021s0.087-0.008 0.127-0.022l-0.003 0.001c0.235-0.031 0.434-0.162 0.557-0.349l0.002-0.003c0.060-0.071 0.109-0.153 0.143-0.242l0.002-0.006c0.005-0.016 0.007-0.033 0.007-0.052s-0.003-0.036-0.008-0.053l0 0.001c-0.030-0.028-0.070-0.045-0.114-0.045s-0.084 0.017-0.114 0.045l0-0c0.026-0.018 0.058-0.029 0.093-0.029s0.067 0.011 0.094 0.029l-0.001-0cl-0.083 0.186z"></path>
    <path d="M2.73 1.303c-0.011-0.056-0.017-0.12-0.017-0.186s0.006-0.13 0.018-0.193l-0.001 0.006c0.024-0.155 0.075-0.294 0.148-0.419l-0.003 0.006 0.145-0.207c0.005-0.020 0.009-0.043 0.009-0.067 0-0.107-0.062-0.199-0.152-0.242l-0.002-0.001c-0.005 0.019-0.007 0.040-0.007 0.062s0.003 0.043 0.008 0.064l-0-0.002c-0.002 0.111-0.058 0.209-0.144 0.268l-0.001 0.001-0.145 0.165c-0.025 0.065-0.039 0.139-0.039 0.217s0.014 0.153 0.041 0.221l-0.001-0.004c0.021 0.12 0.072 0.225 0.146 0.311l-0.001-0.001z"></path>
    <path d="M1.882 10.756c-0.037-0.146-0.058-0.314-0.058-0.486s0.021-0.34 0.061-0.5l-0.003 0.014c0.053-0.118 0.084-0.255 0.084-0.4 0-0.242-0.087-0.464-0.23-0.636l0.001 0.002c-0.189-0.101-0.351-0.211-0.502-0.335l0.005 0.004c0.029 0.087 0.045 0.186 0.045 0.29s-0.016 0.203-0.047 0.296l0.002-0.007c-0.085 0.149-0.135 0.327-0.135 0.517s0.050 0.368 0.138 0.522l-0.003-0.005c0.165 0.31 0.579 0.559 0.641 0.724z"></path>
    <path d="M4.633 24.057s0 0.29 0.496 0.248 0.931-1.551-0.331-1.903c-0.043-0.003-0.093-0.005-0.144-0.005-0.64 0-1.211 0.29-1.591 0.746l-0.003 0.003c0.244-0.356 0.564-0.643 0.937-0.841l0.014-0.007c0.855-0.179 1.508-0.867 1.633-1.726l0.001-0.011c-0.31-0.827-0.848-1.034-1.386-0.641-0.178 0.304-0.302 0.661-0.35 1.041l-0.001 0.014c0.033-0.204 0.053-0.44 0.053-0.68 0-0.653-0.141-1.272-0.395-1.83l0.011 0.028c0.139 0.489 0.218 1.051 0.218 1.632 0 0.381-0.034 0.754-0.1 1.116l0.006-0.038c-0.179 0.793-0.517 1.488-0.981 2.080l0.009-0.011c-0.41 0.708-0.652 1.558-0.652 2.464 0 0.196 0.011 0.389 0.033 0.579l-0.002-0.023c-0.086-0.297-0.135-0.638-0.135-0.99 0-0.704 0.196-1.362 0.537-1.922l-0.009 0.016c0.574-0.715 0.994-1.58 1.193-2.525l0.007-0.040c0.040-0.239 0.062-0.514 0.062-0.794 0-0.628-0.114-1.23-0.322-1.785l0.012 0.035c-0.225-0.355-0.359-0.788-0.359-1.251 0-0.356 0.079-0.694 0.221-0.997l-0.006 0.014c0.092-0.153 0.257-0.255 0.446-0.255 0.162 0 0.307 0.075 0.402 0.192l0.001 0.001c0 0.145 0 0.889-0.538 0.434 0 0-0.103 0.29 0.434 0.207s0.331-1.22-0.558-0.848-0.558 2.069-0.269 2.793c-0.324-0.692-0.513-1.502-0.513-2.357 0-0.153 0.006-0.305 0.018-0.456l-0.001 0.020c0.269-1.014 0.724-0.724 0.724-0.559s0.352 0.207 0.269-0.124-0.993-0.352-1.138 0.579c-0.007 0.107-0.010 0.232-0.010 0.359 0 0.489 0.057 0.965 0.163 1.421l-0.008-0.042c-0.186-0.6-0.786-2.896 0.476-2.73 0 0-0.476-0.559-0.848 0.641 0 0 0-1.593 0.662-1.014 0 0.103 0.29 0.103 0.165-0.186-0.066-0.14-0.105-0.304-0.105-0.477 0-0.424 0.232-0.793 0.575-0.989l0.006-0.003s-0.931-0.103-0.683 1.386c0 0-0.558-0.207-0.703 0.662-0.035 0.208-0.055 0.448-0.055 0.693s0.020 0.485 0.059 0.718l-0.003-0.025c-0.138-0.335-0.217-0.725-0.217-1.133 0-0.266 0.034-0.525 0.098-0.771l-0.005 0.021c0.112-0.241 0.32-0.421 0.573-0.495l0.006-0.002c-0.011-0.001-0.023-0.001-0.036-0.001-0.208 0-0.385 0.127-0.46 0.308l-0.001 0.003c0.141-1.058 0.905-1.905 1.906-2.168l0.018-0.004c0.264 0.018 0.493 0.151 0.64 0.349l0.002 0.002c0.066 0.114 0.105 0.251 0.105 0.397 0 0.258-0.121 0.488-0.31 0.636l-0.002 0.001c-0.037 0.014-0.080 0.023-0.124 0.023s-0.087-0.008-0.127-0.023l0.002 0.001c-0.079-0.025-0.144-0.076-0.185-0.143l-0.001-0.001c0.018 0.066 0.054 0.123 0.103 0.165l0 0c0.068 0.042 0.15 0.067 0.238 0.067s0.17-0.025 0.24-0.068l-0.002 0.001c0.186-0.167 0.303-0.409 0.303-0.678 0-0.178-0.051-0.344-0.139-0.484l0.002 0.004c-0.172-0.242-0.435-0.411-0.739-0.454l-0.006-0.001c-0.981 0.035-1.798 0.698-2.064 1.598l-0.004 0.016c-0.154 0.467-0.243 1.005-0.243 1.564 0 0.141 0.006 0.281 0.017 0.419l-0.001-0.018c-0.055-0.301-0.087-0.647-0.087-1.001 0-0.835 0.177-1.629 0.495-2.346l-0.015 0.037c0.189-0.579 0.464-1.081 0.814-1.52l-0.007 0.010c1.2-1.241 1.738 0.745 0.662 0.393 0 0 0.269 0.455 0.765 0s-0.414-1.738-1.448-0.414c0.183-0.235 0.355-0.499 0.503-0.777l0.014-0.029c0.159-0.738 0.613-1.347 1.229-1.71l0.012-0.007c0.169 0 0.318 0.081 0.413 0.206l0.001 0.001c0.058 0.073 0.093 0.167 0.093 0.269s-0.035 0.196-0.094 0.27l0.001-0.001c-0.042 0.028-0.093 0.045-0.149 0.045-0.149 0-0.269-0.12-0.269-0.269 0-0.016 0.001-0.031 0.004-0.046l-0 0.002c-0.026 0.048-0.041 0.105-0.041 0.165s0.015 0.118 0.042 0.167l-0.001-0.002c0.053 0.084 0.144 0.14 0.247 0.145l0.001 0c0.302-0.045 0.531-0.303 0.531-0.614 0-0.046-0.005-0.091-0.015-0.135l0.001 0.004c-0.117-0.251-0.368-0.422-0.658-0.422-0.038 0-0.075 0.003-0.112 0.009l0.004-0.001c-1.034 0-1.014 1.634-1.634 2.255 0.286-0.489 0.495-1.060 0.596-1.667l0.004-0.029c-0.006-0.046-0.010-0.098-0.010-0.152 0-0.49 0.289-0.912 0.705-1.107l0.008-0.003s0 0-0.124-0.124c0.033-0.019 0.072-0.030 0.114-0.030s0.081 0.011 0.115 0.031l-0.001-0.001c0.068 0.069 0.162 0.112 0.266 0.112 0.164 0 0.304-0.107 0.353-0.254l0.001-0.003c0.032-0.083 0.051-0.179 0.051-0.279s-0.019-0.196-0.053-0.285l0.002 0.005c-0.128 0.297-0.384 0.519-0.696 0.598l-0.007 0.002c-0.372 0-0.455 0-0.745 0.558-0-0.003-0-0.006-0-0.009 0-0.295 0.213-0.54 0.493-0.59l0.004-0.001s-0.124-0.207-0.31 0c-0.002-0.027-0.003-0.060-0.003-0.092 0-0.191 0.039-0.373 0.11-0.538l-0.003 0.009c0.138-0.125 0.25-0.276 0.327-0.447l0.003-0.009c0-0.186-0.103-0.228-0.207 0s-0.165 0.434-0.186 0.455c-0.001-0.016-0.001-0.035-0.001-0.055 0-0.194 0.054-0.375 0.149-0.529l-0.003 0.004c0.145-0.145 0.352-0.724 0-0.848 0.017 0.062 0.027 0.133 0.027 0.207s-0.010 0.145-0.028 0.213l0.001-0.006c0.001 0.015 0.002 0.032 0.002 0.049 0 0.126-0.031 0.244-0.086 0.348l0.002-0.004c-0.145 0.35-0.229 0.755-0.229 1.181 0 0.131 0.008 0.259 0.023 0.386l-0.002-0.015c0.009-0.102 0.014-0.221 0.014-0.341s-0.005-0.239-0.015-0.357l0.001 0.015c0.016-0.027 0.025-0.059 0.025-0.093s-0.009-0.066-0.025-0.094l0 0.001c0-0.124 0-0.455 0-0.641-0.183-0.38-0.29-0.825-0.29-1.296 0-0.126 0.008-0.251 0.023-0.373l-0.001 0.015c0.228-0.434 0.641-0.269 0.476 0 0.065-0.045 0.107-0.12 0.107-0.204 0-0.015-0.001-0.031-0.004-0.045l0 0.002c-0.021-0.118-0.122-0.207-0.245-0.207-0.001 0-0.002 0-0.004 0h0c-0.153 0.050-0.28 0.144-0.371 0.267l-0.001 0.002c-0.005 0.031-0.007 0.067-0.007 0.103s0.003 0.072 0.008 0.107l-0-0.004c-0.010 0.047-0.015 0.1-0.015 0.155s0.006 0.109 0.016 0.16l-0.001-0.005c0.006 0.305 0.058 0.596 0.151 0.868l-0.006-0.020c0.112 0.293 0.187 0.631 0.206 0.984l0 0.009c-0.135-0.448-0.283-0.825-0.456-1.188l0.021 0.050c-0.123-0.21-0.195-0.463-0.195-0.732 0-0.37 0.137-0.708 0.362-0.966l-0.001 0.002c0.113-0.102 0.264-0.164 0.429-0.164 0.354 0 0.641 0.287 0.641 0.641 0 0.139-0.044 0.268-0.12 0.373l0.001-0.002c-0.060 0.076-0.147 0.129-0.246 0.144l-0.002 0c-0.037 0.013-0.080 0.020-0.124 0.020s-0.087-0.007-0.127-0.021l0.003 0.001c0.067 0.082 0.16 0.141 0.266 0.165l0.003 0.001c0.105-0.014 0.197-0.059 0.269-0.124l-0 0c0.079-0.126 0.125-0.28 0.125-0.444 0-0.273-0.129-0.517-0.33-0.672l-0.002-0.001c-0.116-0.082-0.258-0.135-0.411-0.145l-0.002-0c-0.031-0.003-0.067-0.005-0.104-0.005-0.225 0-0.433 0.072-0.603 0.193l0.003-0.002c-0.239 0.22-0.389 0.535-0.389 0.884 0 0.105 0.013 0.207 0.039 0.303l-0.002-0.008c-0.050-0.142-0.079-0.305-0.079-0.476 0-0.616 0.379-1.144 0.917-1.362l0.010-0.004s-0.455-0.186-0.889 0.579c-0.113 0.21-0.179 0.459-0.179 0.724s0.066 0.514 0.183 0.732l-0.004-0.008c-0.21-0.4-0.334-0.873-0.334-1.375 0-0.047 0.001-0.094 0.003-0.141l-0 0.007c-0.005-0.040-0.007-0.086-0.007-0.133 0-0.368 0.162-0.697 0.419-0.921l0.001-0.001c0.517-0.455 0.558 0.352 0.186 0.145 0 0 0.207 0.352 0.393 0s-0.476-0.765-0.807 0.062c0.034-0.322 0.245-0.588 0.532-0.701l0.006-0.002c0.204-0.021 0.374-0.15 0.454-0.327l0.001-0.004c0.054-0.127 0.158-0.224 0.286-0.268l0.003-0.001c-0.048-0.037-0.109-0.059-0.176-0.059s-0.128 0.022-0.176 0.060l0.001-0c-0.116 0.193-0.269 0.352-0.45 0.472l-0.005 0.003h-0.228c0.095-0.060 0.204-0.116 0.318-0.161l0.013-0.005c0.159-0.095 0.264-0.267 0.264-0.463 0-0.088-0.021-0.17-0.058-0.244l0.001 0.003c0.165-0.145 0-0.207-0.165 0-0.101 0.090-0.217 0.166-0.343 0.224l-0.009 0.004c-0.167 0.13-0.274 0.331-0.274 0.557 0 0.030 0.002 0.059 0.005 0.088l-0-0.003c-0.079 0.091-0.136 0.203-0.164 0.326l-0.001 0.005s0-0.745-0.579-0.496c-0.11 0.066-0.183 0.185-0.183 0.321s0.073 0.255 0.181 0.32l0.002 0.001s0-0.165 0-0.228 0.228-0.703 0.476 0-0.124 0.703 0 1.055c0 0-0.352-0.703-0.848-0.476-0.113 0.056-0.205 0.141-0.267 0.245l-0.002 0.003c-0.034 0.065-0.053 0.142-0.053 0.224 0 0.162 0.077 0.305 0.197 0.396l0.001 0.001c0.046 0.019 0.099 0.030 0.155 0.030s0.109-0.011 0.158-0.031l-0.003 0.001c0.101-0.027 0.182-0.095 0.227-0.184l0.001-0.002c0.034-0.042 0.054-0.096 0.054-0.155s-0.021-0.113-0.055-0.156l0 0c-0.002 0.011-0.003 0.024-0.003 0.037 0 0.086 0.052 0.159 0.126 0.19l0.001 0.001c-0.043 0.063-0.108 0.109-0.184 0.124l-0.002 0c-0.037 0.016-0.079 0.026-0.124 0.026s-0.088-0.010-0.126-0.027l0.002 0.001c-0.269-0.207 0-0.703 0.207-0.6 0.036-0.008 0.078-0.013 0.121-0.013 0.308 0 0.558 0.25 0.558 0.558 0 0.049-0.006 0.096-0.018 0.141l0.001-0.004c0.096 0.493 0.24 0.929 0.429 1.339l-0.015-0.036s-0.662-0.393-0.993-0.165 0.103 0.31 0.207 0.186c0.376 0.024 0.689 0.274 0.805 0.614l0.002 0.006c-0.186-0.234-0.468-0.385-0.785-0.393l-0.001-0c-0.207 0-0.124 0.228 0 0.248 0.053-0.012 0.114-0.019 0.177-0.019 0.375 0 0.692 0.25 0.794 0.593l0.001 0.006c-0.132-0.199-0.349-0.333-0.597-0.351l-0.003-0c-0.103 0 0 0.103 0 0.124 0.508 0.147 0.874 0.608 0.874 1.155 0 0.038-0.002 0.075-0.005 0.112l0-0.005c-0.184-0.617-0.745-1.058-1.41-1.058-0.094 0-0.186 0.009-0.274 0.026l0.009-0.001c-0.334 0.096-0.574 0.398-0.574 0.757 0 0.084 0.013 0.165 0.038 0.242l-0.002-0.006c0.045 0.172 0.158 0.311 0.307 0.391l0.003 0.002c0.061 0.020 0.131 0.031 0.204 0.031 0.176 0 0.337-0.067 0.458-0.177l-0.001 0.001c0.075-0.050 0.132-0.121 0.164-0.204l0.001-0.003c0.028-0.047 0.044-0.105 0.044-0.165s-0.016-0.118-0.045-0.167l0.001 0.002c0.052 0.061 0.084 0.141 0.084 0.228s-0.032 0.167-0.084 0.228l0-0c-0.091 0.103-0.224 0.168-0.372 0.168-0.224 0-0.413-0.148-0.475-0.351l-0.001-0.004c-0.031-0.060-0.050-0.131-0.050-0.207s0.018-0.147 0.051-0.209l-0.001 0.003c0 0.414 0.496 0.765 0.724 0.31-0.050 0.032-0.111 0.051-0.176 0.051s-0.126-0.019-0.177-0.051l0.001 0.001c-0.056-0.033-0.099-0.083-0.123-0.143l-0.001-0.002c-0.013-0.043-0.021-0.093-0.021-0.145s0.008-0.101 0.022-0.148l-0.001 0.004c0.006-0.103 0.044-0.195 0.104-0.27l-0.001 0.001c0.077-0.023 0.164-0.037 0.256-0.037 0.217 0 0.417 0.076 0.574 0.203l-0.002-0.001c0.105 0.075 0.194 0.164 0.267 0.266l0.002 0.003c0.334 0.445 0.534 1.007 0.534 1.616 0 0.16-0.014 0.317-0.040 0.469l0.002-0.016c-0.032-0.549-0.289-1.033-0.68-1.363l-0.003-0.002c-0.207 0-0.29 0-0.186 0.145 0.468 0.302 0.773 0.821 0.773 1.412 0 0.056-0.003 0.112-0.008 0.167l0.001-0.007c-0.030-0.427-0.25-0.798-0.575-1.031l-0.004-0.003c-0.083-0.124-0.083 0.062-0.083 0.103 0.31 0.17 0.524 0.481 0.558 0.844l0 0.004c-0.165-0.559-0.558-0.745-0.869-0.559-0.076 0.053-0.124 0.14-0.124 0.238s0.049 0.185 0.123 0.237l0.001 0.001c-0.051-0.042-0.083-0.105-0.083-0.176s0.032-0.134 0.083-0.176l0-0c0.044-0.009 0.094-0.015 0.145-0.015 0.398 0 0.721 0.321 0.724 0.718v0c0.011 0.066 0.018 0.142 0.018 0.22 0 0.205-0.045 0.4-0.124 0.575l0.004-0.009c0.002-0.025 0.004-0.054 0.004-0.083 0-0.32-0.165-0.601-0.414-0.763l-0.003-0.002s-0.041 0-0.041 0.165c0.281 0.164 0.466 0.464 0.466 0.807 0 0.051-0.004 0.101-0.012 0.15l0.001-0.005c0.009 0.028 0.014 0.060 0.014 0.093s-0.005 0.065-0.015 0.095l0.001-0.002c0-0.003 0-0.007 0-0.010 0-0.303-0.186-0.563-0.45-0.67l-0.005-0.002c-0.165 0-0.228 0.248 0 0.228 0.086 0.11 0.137 0.251 0.137 0.403s-0.052 0.293-0.138 0.405l0.001-0.002c-0.293 0.416-0.568 0.891-0.803 1.389l-0.025 0.059s0-0.476-1.034-0.6c0.073-0.021 0.156-0.033 0.243-0.033 0.323 0 0.607 0.168 0.768 0.422l0.002 0.004c-0.046-0.373-0.286-0.682-0.614-0.825l-0.007-0.003c-0.113-0.067-0.25-0.107-0.396-0.107-0.207 0-0.395 0.080-0.536 0.211l0-0s0 0 0 0c0.146 0.379 0.507 0.642 0.929 0.642 0.015 0 0.030-0 0.045-0.001l-0.002 0c0.062-0.030 0.135-0.048 0.213-0.048 0.247 0 0.452 0.181 0.49 0.417l0 0.003s-0.145 0.455-0.165 0.538c0.009-0.050 0.014-0.107 0.014-0.165s-0.005-0.116-0.015-0.171l0.001 0.006c-0.132-0.239-0.384-0.399-0.672-0.399-0.195 0-0.373 0.073-0.508 0.193l0.001-0.001c-0.004 0.025-0.006 0.054-0.006 0.084 0 0.308 0.25 0.559 0.558 0.559 0.077 0 0.15-0.016 0.217-0.044l-0.004 0.001c-0.001 0-0.003 0-0.004 0-0.088 0-0.164-0.050-0.202-0.123l-0.001-0.001c0-0.124 0.434-0.372 0.476 0.331s-0.145 0.848-0.186 1.262c-0.008 0.105-0.013 0.228-0.013 0.352s0.005 0.246 0.014 0.368l-0.001-0.016c-0.005 0.080-0.008 0.174-0.008 0.269s0.003 0.189 0.009 0.282l-0.001-0.013c0.056 0.296 0.128 0.553 0.218 0.801l-0.011-0.035c0.093 0.27 0.191 0.495 0.303 0.712l-0.014-0.029 0.869 1.655c-0.559-0.627-0.976-1.392-1.192-2.238l-0.008-0.037c-0.008 0.061-0.012 0.132-0.012 0.204 0 0.472 0.195 0.898 0.508 1.202l0 0c-0.409-0.459-0.913-0.824-1.483-1.065l-0.027-0.010c0.324 0.063 0.609 0.193 0.853 0.376l-0.005-0.004s0.145-0.703-0.848-0.703c-0.062 0.014-0.134 0.023-0.207 0.023s-0.145-0.008-0.213-0.024l0.006 0.001c0.111 0.117 0.191 0.265 0.226 0.428l0.001 0.006c0.149 0.506 0.608 0.869 1.153 0.869 0.002 0 0.004 0 0.005 0h-0c0.394 0.159 0.718 0.423 0.947 0.758l0.005 0.007c-0.377-0.394-0.908-0.639-1.496-0.639-0.204 0-0.401 0.030-0.588 0.085l0.015-0.004c-0.228 0.124 0 0.31 0.186 0.165 0.176-0.061 0.378-0.097 0.589-0.097 0.494 0 0.942 0.195 1.273 0.511l-0.001-0.001c-0.223-0.214-0.526-0.345-0.859-0.345-0.323 0-0.617 0.123-0.838 0.326l0.001-0.001c-0.18 0.189-0.29 0.445-0.29 0.727 0 0.148 0.031 0.29 0.086 0.418l-0.003-0.007c0.086 0.202 0.248 0.357 0.45 0.433l0.005 0.002c0.053 0.017 0.113 0.026 0.176 0.026s0.123-0.010 0.18-0.027l-0.004 0.001c0.107-0.038 0.189-0.121 0.227-0.225l0.001-0.003c0.001-0.010 0.002-0.021 0.002-0.033 0-0.131-0.076-0.244-0.186-0.298l-0.002-0.001c0.075 0.044 0.124 0.124 0.124 0.215 0 0.004-0 0.009-0 0.013l0-0.001c-0.018 0.082-0.071 0.15-0.143 0.185l-0.002 0.001c-0.064 0.026-0.138 0.041-0.215 0.041-0.158 0-0.301-0.063-0.405-0.166l0 0c-0.145-0.129-0.236-0.317-0.236-0.525 0-0.071 0.010-0.139 0.030-0.204l-0.001 0.005c0.296-0.282 0.698-0.455 1.14-0.455 0.263 0 0.511 0.061 0.731 0.17l-0.010-0.004c0.369 0.283 0.625 0.695 0.702 1.168l0.001 0.011c-0.247-0.612-0.76-1.071-1.392-1.238l-0.014-0.003c-0.051-0.013-0.109-0.021-0.169-0.021-0.388 0-0.703 0.315-0.703 0.703 0 0.089 0.017 0.175 0.047 0.253l-0.002-0.005c-0.002-0.019-0.003-0.042-0.003-0.065 0-0.4 0.324-0.724 0.724-0.724 0.023 0 0.046 0.001 0.068 0.003l-0.003-0c0.938 0.21 1.628 1.035 1.628 2.021 0 0.134-0.013 0.265-0.037 0.391l0.002-0.013c-0.040-0.393-0.29-0.718-0.634-0.866l-0.007-0.003c-0.228-0.021 0 0.165 0 0.165 0.355 0.249 0.597 0.641 0.641 1.090l0.001 0.006s0 0.124 0 0.124c-0.068-0.479-0.41-0.863-0.86-0.991l-0.008-0.002c-0.683 0-0.558 0.807-0.103 0.517 0 0-0.228 0-0.186-0.145s0.414-0.186 0.558 0c0.307 0.183 0.509 0.513 0.509 0.891 0 0.118-0.020 0.231-0.056 0.337l0.002-0.007c0.002-0.016 0.002-0.035 0.002-0.054 0-0.343-0.278-0.621-0.621-0.621-0.045 0-0.088 0.005-0.131 0.014l0.004-0.001c-0.171 0.014-0.305 0.156-0.305 0.33 0 0.111 0.055 0.209 0.138 0.269l0.001 0.001s-0.186-0.434 0.207-0.331c0.228 0.176 0.374 0.449 0.374 0.756 0 0.214-0.071 0.411-0.19 0.57l0.002-0.002c-0.178 0.364-0.371 0.676-0.59 0.966l0.011-0.015c0.007-0.046 0.012-0.099 0.012-0.153 0-0.25-0.090-0.479-0.24-0.655l0.001 0.001c-0.097-0.219-0.246-0.401-0.431-0.535l-0.004-0.003c-0.082-0.033-0.151-0.082-0.206-0.144l-0-0.001c0.268 0.061 0.492 0.218 0.639 0.431l0.002 0.004c0.027-0.064 0.042-0.139 0.042-0.217 0-0.253-0.163-0.469-0.39-0.547l-0.004-0.001c-0.014 0.001-0.030 0.002-0.047 0.002-0.182 0-0.348-0.072-0.47-0.188l0 0c-0.015 0.062-0.024 0.133-0.024 0.207s0.009 0.145 0.025 0.213l-0.001-0.006c-0.103 0.331-0.165 1.158 0.703 1.055 0.175 0.059 0.299 0.221 0.299 0.413 0 0.133-0.060 0.252-0.154 0.331l-0.001 0.001c0.018-0.056 0.028-0.12 0.028-0.186 0-0.352-0.286-0.638-0.638-0.638-0.286 0-0.528 0.188-0.609 0.447l-0.001 0.005c-0.015 0.044-0.024 0.094-0.024 0.147 0 0.251 0.204 0.455 0.455 0.455 0.132 0 0.251-0.056 0.334-0.146l0-0s-0.31 0-0.31-0.186 0.496-0.434 0.579 0c-0.181 0.448-0.286 0.968-0.286 1.512 0 0.382 0.052 0.751 0.148 1.102l-0.007-0.029c0.093 0.371 0.25 0.696 0.46 0.98l-0.005-0.007c-0.331-0.291-0.558-0.694-0.619-1.149l-0.001-0.010c0.032-0.108 0.050-0.233 0.050-0.362 0-0.283-0.089-0.544-0.239-0.759l0.003 0.004s-0.372 0 0 0.331c0.125 0.068 0.208 0.197 0.208 0.347 0 0.009-0 0.018-0.001 0.027l0-0.001c-0.025 0.109-0.040 0.234-0.040 0.362s0.014 0.253 0.042 0.373l-0.002-0.011c-0.123-0.1-0.282-0.161-0.455-0.161s-0.332 0.061-0.456 0.162l0.001-0.001c-0.107 0.123-0.172 0.284-0.172 0.461 0 0.034 0.002 0.068 0.007 0.101l-0-0.004c0.057 0.165 0.176 0.297 0.327 0.371l0.004 0.002c0.049 0.022 0.106 0.035 0.165 0.035s0.117-0.013 0.168-0.036l-0.003 0.001c0.072-0.037 0.129-0.094 0.165-0.163l0.001-0.002c-0.026 0.004-0.056 0.007-0.086 0.007-0.212 0-0.397-0.119-0.492-0.293l-0.001-0.003c-0.011-0.034-0.018-0.073-0.018-0.114s0.006-0.080 0.019-0.116l-0.001 0.003c0-0.496 0.91-0.372 0.91-0.103s-0.496-0.228-0.6 0c-0.007 0.019-0.011 0.040-0.011 0.062 0 0.103 0.083 0.186 0.186 0.186 0.004 0 0.008-0 0.011-0l-0 0c0.039-0.088 0.126-0.149 0.228-0.149s0.188 0.061 0.227 0.147l0.001 0.002c0.178 0.317 0.459 0.557 0.796 0.679l0.010 0.003c0.556 0.377 0.917 1.005 0.917 1.719 0 0.38-0.103 0.736-0.281 1.042l0.005-0.010c0.067-0.202 0.105-0.435 0.105-0.677 0-0.448-0.132-0.865-0.358-1.214l0.005 0.009c-0.579-0.641-1.427-0.765-1.738-0.186s0.352 0.703 0.517 0.558-0.517 0-0.207-0.558c0.154-0.132 0.357-0.213 0.578-0.213 0.397 0 0.734 0.261 0.848 0.62l0.002 0.006c0.156 0.21 0.249 0.474 0.249 0.76 0 0.017-0 0.033-0.001 0.050l0-0.002s-0.372-1.22-1.117-0.765c0.6 0.072 1.060 0.578 1.060 1.192 0 0.039-0.002 0.078-0.006 0.116l0-0.005s-0.186-1.345-1.096-0.91 0 0.972 0.248 0.724-0.496 0-0.29-0.434 0.827 0.186 0.848 0.641c0.005 0.042 0.008 0.090 0.008 0.139 0 0.414-0.196 0.782-0.501 1.017l-0.003 0.002c0.205-0.215 0.332-0.507 0.332-0.828 0-0.014-0-0.029-0.001-0.043l0 0.002c-0.124-0.165-0.228 0-0.145 0 0.072 0.071 0.116 0.17 0.116 0.279s-0.045 0.208-0.116 0.279l-0 0c-0.13 0.298-0.364 0.532-0.654 0.659l-0.008 0.003c-0.047 0.034-0.106 0.055-0.169 0.055-0.16 0-0.29-0.13-0.29-0.29 0-0.042 0.009-0.082 0.025-0.119l-0.001 0.002s0.165-0.165 0.228 0 0.228 0.393 0.331 0-0.434-0.372-0.538-0.31c-0.164 0.094-0.272 0.268-0.272 0.468 0 0.094 0.024 0.182 0.067 0.259l-0.001-0.003c0.183 0.231 0.464 0.377 0.779 0.377 0.194 0 0.375-0.056 0.528-0.152l-0.004 0.002c0.361-0.31 0.799-0.54 1.282-0.658l0.021-0.004c0.31 0 0.496 0.186 0.352 0.496s0 0.124-0.414 0.145c0.058 0.035 0.127 0.056 0.202 0.056 0.178 0 0.328-0.118 0.377-0.281l0.001-0.003c0.165-0.455-0.434-0.579-0.538-0.538-0.177 0.016-0.338 0.068-0.482 0.148l0.006-0.003c0.206-0.23 0.503-0.375 0.835-0.375 0.026 0 0.053 0.001 0.079 0.003l-0.003-0c0.216 0.015 0.386 0.194 0.386 0.413 0 0.037-0.005 0.073-0.014 0.107l0.001-0.003s0.165 0 0-0.393c-0.137-0.179-0.352-0.294-0.592-0.294-0.092 0-0.18 0.017-0.261 0.047l0.005-0.002c-0.344 0.148-0.63 0.374-0.844 0.657l-0.004 0.005c-0.27 0.256-0.636 0.414-1.038 0.414-0.006 0-0.012-0-0.017-0h0.001c0.429-0.1 0.793-0.335 1.052-0.658l0.003-0.004c0.256-0.38 0.684-0.627 1.171-0.627 0.047 0 0.093 0.002 0.138 0.007l-0.006-0c0.244 0.036 0.451 0.174 0.577 0.369l0.002 0.003c0.248 0.124 0.496 0.145 0.352-0.31-0.194-0.221-0.477-0.359-0.793-0.359-0.086 0-0.169 0.010-0.249 0.029l0.007-0.001c-0.316 0.050-0.597 0.174-0.832 0.355l0.004-0.003c0.199-0.264 0.5-0.442 0.843-0.475l0.005-0c0.063 0.010 0.136 0.016 0.21 0.016 0.234 0 0.454-0.060 0.645-0.165l-0.007 0.003c0.145 0 0.228-0.352-0.165-0.248-0.283 0.089-0.523 0.187-0.752 0.303l0.029-0.013c0.506-0.27 0.914-0.665 1.192-1.144l0.008-0.014c0.065-0.17 0.109-0.367 0.124-0.573l0-0.006c0.050-0.145 0.078-0.312 0.078-0.486s-0.029-0.341-0.081-0.497l0.003 0.011c-0.081-0.216-0.244-0.385-0.45-0.474l-0.005-0.002h-0.31c0.316 0.107 0.539 0.4 0.539 0.746 0 0.144-0.039 0.279-0.106 0.395l0.002-0.004c-0.186 0.487-0.445 0.906-0.769 1.265l0.003-0.004c0.002-0.018 0.003-0.039 0.003-0.061 0-0.151-0.056-0.29-0.148-0.395l0.001 0.001s0.248-0.103 0.207 0c0.176-0.121 0.29-0.321 0.29-0.547 0-0.102-0.023-0.198-0.064-0.284l0.002 0.004c-0.269-0.476-1.034 0.207-0.765 0.579 0 0 0-0.517 0.29-0.145 0.022 0.030 0.036 0.068 0.036 0.11 0 0.086-0.058 0.158-0.138 0.18l-0.001 0c0.103 0.116 0.165 0.269 0.165 0.437 0 0.058-0.007 0.114-0.021 0.167l0.001-0.005c-0.165 0.328-0.373 0.608-0.62 0.847l-0.001 0.001c0.143-0.274 0.227-0.599 0.227-0.943 0-0.578-0.237-1.101-0.62-1.477l-0-0c-0.361-0.334-0.587-0.81-0.587-1.339 0-0.264 0.056-0.515 0.157-0.741l-0.005 0.012c0.125-0.364 0.464-0.62 0.863-0.62 0.068 0 0.134 0.007 0.198 0.022l-0.006-0.001c0.641 0.124 0.393 1.055 0 0.972-0.011 0.002-0.023 0.003-0.036 0.003-0.126 0-0.228-0.102-0.228-0.228 0-0.094 0.057-0.174 0.138-0.209l0.001-0.001c-0.026-0.018-0.058-0.029-0.093-0.029s-0.067 0.011-0.094 0.029l0.001-0c-0.028 0.048-0.045 0.105-0.045 0.166 0 0.177 0.138 0.321 0.313 0.33l0.001 0c0.393 0 0.827-0.848 0-1.22s-1.365 0.6-1.407 1.117c0.024-0.473 0.242-0.891 0.577-1.177l0.002-0.002c0.285-0.16 0.52-0.376 0.699-0.634l0.005-0.007c0.049-0.018 0.106-0.028 0.165-0.028s0.116 0.010 0.169 0.029l-0.003-0.001c-0.032-0.003-0.069-0.004-0.107-0.004-0.73 0-1.329 0.565-1.382 1.282l-0 0.005c0.013-0.607 0.229-1.16 0.583-1.598l-0.004 0.005c0.579-0.579 1.262-0.538 1.138 0-0.145 0-0.228 0.186 0 0.165s0.248-0.889-0.641-0.641c0.211-0.148 0.473-0.237 0.755-0.237 0.129 0 0.253 0.018 0.371 0.053l-0.009-0.002c0.414 0.228 0.269 0.641 0.145 0.641s-0.186 0 0 0 0.476-0.455 0-0.786c-0.137-0.059-0.297-0.094-0.465-0.094-0.327 0-0.623 0.13-0.839 0.342l0-0c-0.195 0.161-0.37 0.324-0.536 0.495l-0.002 0.002c0.407-0.633 1.106-1.049 1.902-1.055h0.001c1.034 0.228 0.786 1.696-0.041 1.427zM3.806 21.616c0.228-0.745 0.269-0.889 0.269-0.889 0.020-0.238 0.11-0.451 0.25-0.623l-0.002 0.002c0.092-0.095 0.212-0.161 0.348-0.186l0.004-0.001c0.021-0.002 0.044-0.003 0.068-0.003 0.288 0 0.537 0.169 0.654 0.413l0.002 0.004c0.050 0.106 0.079 0.231 0.079 0.362s-0.029 0.256-0.081 0.367l0.002-0.005c-0.095 0.209-0.236 0.383-0.41 0.515l-0.003 0.002c-0.282 0.212-0.6 0.411-0.935 0.583l-0.037 0.017c-0.248 0.162-0.465 0.332-0.664 0.519l0.002-0.002c0.182-0.315 0.337-0.679 0.447-1.062l0.008-0.034z"></path>
    <path d="M0.786 13.818c0.117 0 0.225-0.039 0.312-0.104l-0.001 0.001s0.269 0 0.352 0.869c0.023-0.104 0.036-0.223 0.036-0.346 0-0.375-0.122-0.722-0.329-1.003l0.003 0.005c-0.017-0.013-0.039-0.021-0.062-0.021s-0.045 0.008-0.062 0.021l0-0c0.028 0.057 0.045 0.125 0.045 0.197s-0.016 0.139-0.046 0.199l0.001-0.003c-0.055 0.052-0.131 0.085-0.213 0.085-0.012 0-0.025-0.001-0.037-0.002l0.001 0c-0.195-0.017-0.355-0.149-0.413-0.328l-0.001-0.003c-0.020-0.054-0.031-0.116-0.031-0.18 0-0.147 0.059-0.281 0.155-0.378l-0 0c0.083-0.072 0.191-0.118 0.309-0.124l0.001-0c0.315 0.006 0.587 0.187 0.722 0.45l0.002 0.005c-0.039-0.284-0.166-0.533-0.352-0.724l0 0c0.078 0.1 0.141 0.217 0.184 0.343l0.002 0.008c-0.155-0.099-0.333-0.184-0.522-0.244l-0.016-0.004c-0.298 0.009-0.546 0.215-0.62 0.492l-0.001 0.005c-0.014 0.050-0.022 0.108-0.022 0.167 0 0.177 0.072 0.337 0.188 0.453v0c0.098 0.102 0.236 0.166 0.389 0.166 0.009 0 0.018-0 0.026-0.001l-0.001 0z"></path>
    <path d="M1.924 10.156c-0.003 0.045-0.005 0.097-0.005 0.149 0 0.298 0.063 0.581 0.176 0.836l-0.005-0.013c0.124-0.269 0.276-0.501 0.458-0.706l-0.003 0.003c0.026-0.079 0.041-0.169 0.041-0.263 0-0.226-0.086-0.432-0.227-0.586l0.001 0.001s0-0.269 0-0.331c-0.267 0.167-0.442 0.459-0.442 0.792 0 0.042 0.003 0.083 0.008 0.123l-0-0.005z"></path>
    <path d="M1.117 14.583c0.272 0.217 0.452 0.541 0.476 0.906l0 0.004c0.007-0.056 0.010-0.121 0.010-0.186s-0.004-0.13-0.011-0.194l0.001 0.008c-0.014-0.262-0.131-0.495-0.31-0.661l-0.001-0.001c-0.052-0.024-0.112-0.037-0.176-0.037s-0.124 0.014-0.179 0.038l0.003-0.001c-0.104 0.031-0.187 0.107-0.227 0.204l-0.001 0.002c-0.017 0.040-0.027 0.086-0.027 0.134s0.010 0.095 0.028 0.137l-0.001-0.002c0.046 0.103 0.147 0.173 0.265 0.173 0.023 0 0.046-0.003 0.068-0.008l-0.002 0c-0.016 0.004-0.035 0.007-0.054 0.007-0.098 0-0.182-0.062-0.214-0.15l-0-0.002c-0.017-0.030-0.028-0.065-0.028-0.103s0.010-0.074 0.028-0.104l-0.001 0.001c0.037-0.108 0.137-0.183 0.255-0.183 0.035 0 0.068 0.007 0.099 0.019l-0.002-0.001z"></path>
    <path d="M2.999 26.332c-0.143 0.228-0.228 0.506-0.228 0.803 0 0.001 0 0.003 0 0.004v-0c-0.050-0.125-0.079-0.269-0.079-0.421 0-0.281 0.1-0.539 0.267-0.74l-0.002 0.002s0.145-0.248-0.145 0c-0.183 0.174-0.297 0.419-0.297 0.691 0 0.147 0.033 0.287 0.093 0.411l-0.002-0.006c0.063 0.165 0.162 0.304 0.288 0.413l0.001 0.001c-0.028-0.080-0.044-0.173-0.044-0.27 0-0.255 0.113-0.484 0.291-0.64l0.001-0.001c0.434-0.455-0.021-0.455-0.145-0.248z"></path>
    <path d="M4.385 18.038c0.065 0.028 0.141 0.044 0.221 0.044 0.188 0 0.355-0.090 0.461-0.228l0.001-0.001s-0.269-0.124-0.269 0c-0.037 0.013-0.080 0.020-0.124 0.020s-0.087-0.007-0.127-0.021l0.003 0.001c-0.186 0-0.165 0.186-0.165 0.186z"></path>
    <path d="M4.53 18.162v0z"></path>
    <path d="M4.096 17.851c0.020 0.003 0.043 0.004 0.067 0.004 0.228 0 0.422-0.148 0.49-0.352l0.001-0.004c0.016-0.045 0.025-0.097 0.025-0.151 0-0.126-0.049-0.24-0.128-0.325l0 0c-0.088 0.005-0.157 0.077-0.157 0.165 0 0.022 0.004 0.044 0.013 0.063l-0-0.001c0 0.124 0.103 0 0.103 0s0 0 0 0 0 0.124 0 0.124c-0.038 0.226-0.198 0.407-0.409 0.475l-0.004 0.001z"></path>
    <path d="M5.337 17.996c0.165-0.145-0.207-0.145-0.207-0.145-0.075 0.115-0.191 0.198-0.328 0.227l-0.003 0.001c-0.049 0.034-0.11 0.055-0.176 0.055s-0.127-0.020-0.177-0.055l0.001 0.001c0.538 0.434 0.745 0.062 0.889-0.083z"></path>
    <path d="M4.261 22.257c0.145 0 0.414 0 0.807 0 0.019 0.005 0.041 0.008 0.064 0.008 0.137 0 0.248-0.111 0.248-0.248 0-0.010-0.001-0.020-0.002-0.030l0 0.001c-0.094 0.094-0.223 0.152-0.367 0.152-0.031 0-0.062-0.003-0.092-0.008l0.003 0c-0.241 0.015-0.467 0.059-0.681 0.13l0.019-0.005z"></path>
    <path d="M2.875 11.646c0.053 0.031 0.118 0.050 0.186 0.050s0.133-0.019 0.188-0.051l-0.002 0.001c0.067-0.052 0.118-0.122 0.144-0.204l0.001-0.003c0.016-0.043 0.025-0.093 0.025-0.145s-0.009-0.102-0.026-0.148l0.001 0.003c-0.042-0.075-0.106-0.132-0.184-0.165l-0.002-0.001c-0.046-0.020-0.099-0.032-0.155-0.032s-0.109 0.012-0.158 0.033l0.003-0.001c-0.101 0.058-0.176 0.153-0.206 0.266l-0.001 0.003c0.077-0.118 0.204-0.197 0.35-0.207l0.001-0c0.022-0.007 0.047-0.011 0.072-0.011s0.051 0.004 0.074 0.011l-0.002-0c0.034 0.049 0.055 0.11 0.055 0.176s-0.020 0.127-0.055 0.177l0.001-0.001c0-0 0-0 0-0.001 0-0.175-0.137-0.319-0.309-0.33l-0.001-0c0.102 0.068 0.168 0.182 0.168 0.311 0 0.014-0.001 0.028-0.002 0.042l0-0.002c0.007 0.022 0.012 0.046 0.012 0.072s-0.004 0.051-0.012 0.074l0-0.002c-0.042 0.045-0.1 0.075-0.164 0.083l-0.001 0z"></path>
    <path d="M2.131 19.444c0.177 0.075 0.383 0.121 0.599 0.124l0.001 0c0.035-0.008 0.074-0.012 0.115-0.012 0.206 0 0.386 0.112 0.483 0.278l0.001 0.003c-0.083-0.287-0.309-0.506-0.594-0.578l-0.006-0.001c-0.092-0.035-0.199-0.056-0.31-0.056s-0.218 0.020-0.316 0.058l0.006-0.002s-0.186 0-0.186 0-0.062 0.207 0.207 0.186z"></path>
    <path d="M3.909 27.718c0.126-0.124 0.203-0.296 0.203-0.486s-0.078-0.362-0.203-0.486l-0-0s0 0 0-0.103c-0.362 0.101-0.645 0.37-0.763 0.716l-0.002 0.008c0.069 0.356 0.214 0.67 0.418 0.936l-0.004-0.005c-0.032-0.143-0.050-0.307-0.050-0.476s0.018-0.333 0.053-0.491l-0.003 0.015s0 0.517 0 0.579c0.098-0.090 0.215-0.161 0.345-0.205l0.007-0.002z"></path>
    <path d="M2.586 22.361c0.017-0.033 0.028-0.072 0.028-0.114s-0.010-0.081-0.028-0.115l0.001 0.001c-0.037-0.027-0.084-0.044-0.134-0.044s-0.097 0.017-0.135 0.044l0.001-0s0 0 0 0c-0.167 0.145-0.273 0.358-0.273 0.595 0 0.173 0.056 0.332 0.15 0.462l-0.002-0.002c0.152-0.238 0.285-0.511 0.385-0.8l0.008-0.028z"></path>
    <path d="M4.096 7.364c0.031-0.012 0.066-0.019 0.103-0.019s0.073 0.007 0.105 0.020l-0.002-0.001s0.496 0.145 0.496-0.29c-0.049-0.014-0.106-0.022-0.165-0.022-0.229 0-0.429 0.124-0.537 0.309l-0.002 0.003z"></path>
    <path d="M4.551 19.134c0.081-0.101 0.13-0.231 0.13-0.372s-0.049-0.271-0.13-0.374l0.001 0.001c-0.077-0.054-0.14-0.123-0.185-0.204l-0.002-0.003c-0.072-0.109-0.193-0.181-0.33-0.186l-0.001-0c-0.027-0.004-0.057-0.006-0.088-0.006-0.208 0-0.393 0.099-0.51 0.253l-0.001 0.002v-0.165c0-0.496 0.165-0.496 0.165-0.496-0.070 0.105-0.111 0.234-0.111 0.373 0 0.036 0.003 0.072 0.008 0.106l-0.001-0.004c0.090-0.103 0.21-0.176 0.347-0.206l0.004-0.001c0.132-0.095 0.216-0.248 0.216-0.421 0-0.097-0.027-0.187-0.073-0.264l0.001 0.002c-0.028-0.047-0.044-0.105-0.044-0.165s0.016-0.118 0.045-0.167l-0.001 0.002s0 0 0 0c-0.148 0.033-0.28 0.083-0.401 0.149l0.008-0.004c-0.331 0.145-0.372 0.372-0.269 0.807 0.081 0.191 0.128 0.414 0.128 0.647 0 0.042-0.002 0.083-0.004 0.124l0-0.005v-0.29c0.093-0.144 0.253-0.238 0.435-0.238 0.036 0 0.072 0.004 0.106 0.011l-0.003-0.001c0.228 0 0.228 0.124 0.228 0.124s-0.186 0-0.31 0.207c-0.007 0.030-0.011 0.064-0.011 0.099 0 0.16 0.087 0.3 0.216 0.376l0.002 0.001s0 0 0 0c0.157-0.054 0.268-0.2 0.268-0.373 0-0.044-0.007-0.087-0.021-0.127l0.001 0.003c0.009 0.043 0.014 0.091 0.014 0.141 0 0.204-0.085 0.389-0.221 0.52l-0 0h0.393z"></path>
<path d="M5.027 20.602c0 0.217-0.176 0.393-0.393 0.393s-0.393-0.176-0.393-0.393c0-0.217 0.176-0.393 0.393-0.393s0.393 0.176 0.393 0.393z"></path>
</symbol>
</defs>
</svg>
