<svg aria-hidden="true" style="position: absolute; width: 0; height: 0; overflow: hidden;" version="1.1" xmlns="http://www.w3.org/2000/svg" xmlns:xlink="http://www.w3.org/1999/xlink">
    <defs>
        <symbol id="icon-left-arrow" viewBox="0 0 19 32">
            <path d="M11.643 22.536l-6.57-6.57 6.57-6.57 6.57 6.57-6.57 6.57zM7.489 15.966l4.153 4.153 4.153-4.153-4.153-4.153-4.153 4.153z"></path>
            <path d="M15.523 0.272l-15.183 15.728 15.183 15.728v-2.962l-12.323-12.766 12.323-12.766z"></path>
        </symbol>
        <symbol id="icon-right-arrow" viewBox="0 0 19 32">
            <path d="M6.979 22.57l-6.57-6.57 6.57-6.57 6.57 6.57-6.57 6.57zM2.826 16l4.153 4.153 4.187-4.153-4.187-4.187-4.153 4.187z"></path>
            <path d="M3.098 0.272v2.962l12.323 12.766-12.323 12.766v2.962l15.183-15.728z"></path>
        </symbol>
        <symbol id="icon-youtube-logo" viewBox="0 0 32 32">
            <path d="M31.2 0h-30.4c-0.48 0-0.8 0.32-0.8 0.8v30.4c0 0.48 0.32 0.8 0.8 0.8h30.4c0.48 0 0.8-0.32 0.8-0.8v-30.4c0-0.48-0.32-0.8-0.8-0.8zM27.92 19.76c0 2.4-1.92 4.32-4.24 4.56-2.4 0.16-4.96 0.24-7.68 0.24-2.64 0-5.2-0.080-7.6-0.24s-4.16-2.16-4.16-4.56v-7.44c0-2.4 1.84-4.4 4.24-4.56s4.88-0.24 7.52-0.24 5.2 0.080 7.68 0.24c2.4 0.16 4.24 2.16 4.24 4.56v7.44z"></path>
            <path d="M23.28 16.24l-10 4.88v-9.76z"></path>
        </symbol>
        <symbol id="icon-facebook-logo" viewBox="0 0 32 32">
            <path d="M31.2 0h-30.4c-0.48 0-0.8 0.32-0.8 0.8v30.4c0 0.48 0.32 0.8 0.8 0.8h12.64v-11.6h-4v-4.4h4v-4.16c0 0-0.080-7.36 9.68-5.28 0 2.32 0 4.080 0 4.080h-2.48c-0.64 0-2 0.56-1.92 1.84v3.52h4.24l-0.72 4.56h-3.6v11.44h12.56c0.48 0 0.8-0.32 0.8-0.8v-30.4c0-0.48-0.32-0.8-0.8-0.8z"></path>
        </symbol>
        <symbol id="icon-instagram-logo" viewBox="0 0 32 32">
            <path d="M20.88 16.080c0 2.695-2.185 4.88-4.88 4.88s-4.88-2.185-4.88-4.88c0-2.695 2.185-4.88 4.88-4.88s4.88 2.185 4.88 4.88z"></path>
            <path d="M22.48 4.72h-12.96c-2.72 0-4.88 2.16-4.88 4.88v12.96c0 2.72 2.16 4.88 4.88 4.88h12.96c2.72 0 4.88-2.16 4.88-4.88v-12.96c0-2.72-2.16-4.88-4.88-4.88zM16 23.36c-4 0-7.28-3.28-7.28-7.28s3.28-7.28 7.28-7.28c4 0 7.28 3.28 7.28 7.28s-3.28 7.28-7.28 7.28zM23.36 10.24c-0.88 0-1.6-0.72-1.6-1.6s0.72-1.6 1.6-1.6c0.88 0 1.6 0.72 1.6 1.6 0 0.8-0.72 1.6-1.6 1.6z"></path>
            <path d="M31.2 0h-30.4c-0.48 0-0.8 0.32-0.8 0.8v30.4c0 0.48 0.32 0.8 0.8 0.8h30.4c0.48 0 0.8-0.32 0.8-0.8v-30.4c0-0.48-0.32-0.8-0.8-0.8zM29.76 22.56c0 4-3.28 7.28-7.28 7.28h-12.96c-4 0-7.28-3.28-7.28-7.28v-12.96c0-4 3.28-7.28 7.28-7.28h12.96c4 0 7.28 3.28 7.28 7.28v12.96z"></path>
        </symbol>
        <symbol id="icon-romb" viewBox="0 0 32 32">
            <path d="M-0.045 16l16.045-16.045 16.045 16.045-16.045 16.045-16.045-16.045z"></path>
        </symbol>
        <symbol id="icon-telegram-logo" viewBox="0 0 32 32">
            <path d="M31.2 0h-30.4c-0.48 0-0.8 0.32-0.8 0.8v30.4c0 0.48 0.32 0.8 0.8 0.8h30.4c0.48 0 0.8-0.32 0.8-0.8v-30.4c0-0.48-0.32-0.8-0.8-0.8zM24.56 12.4c-0.72 5.040-1.36 8.24-1.84 11.040s-2.48 1.68-3.68 0.64c-1.52-0.88-3.44-2.24-5.040-3.36-1.36-1.040-0.080-1.84 0.48-2.4s4.8-4.48 5.2-4.96c0.48-0.4 0.24-1.040-0.56-0.56s-6.080 4.16-7.52 5.040-1.92 0.8-3.040 0.56c-1.12-0.32-2.56-0.72-3.12-0.96-0.56-0.16-1.44-0.88 0.24-1.6 0 0 10.24-4.48 14.72-6.32 4.32-1.6 4.96-2.080 4.16 2.88z"></path>
        </symbol>
        <symbol id="icon-twitter-logo" viewBox="0 0 32 32">
            <path d="M31.2 0h-30.4c-0.48 0-0.8 0.32-0.8 0.8v30.4c0 0.48 0.32 0.8 0.8 0.8h30.4c0.48 0 0.8-0.32 0.8-0.8v-30.4c0-0.48-0.32-0.8-0.8-0.8zM25.68 10.56c-0.56 2.96 0.16 5.6-3.36 9.6-2.56 3.6-9.36 7.44-17.84 2.96 2.72-0.56 4.88-0.24 6.64-2.16-0.32-0.080-3.28-0.4-4.24-3.36 0.4 0 1.2 0 1.92-0.16-0.8-0.96-3.44-0.64-3.6-4.88 0.48 0.16 1.36 0.48 1.92 0.4-0.56-0.8-3.28-2.4-1.28-6.32 0.64 0.72 3.52 4.48 9.92 4.96-1.12-3.92 4.64-8.32 8.4-4.56 0.72-0.16 2.16-0.56 2.96-1.040 0.24 1.12-1.76 2-1.68 2.4 0.72 0.16 2.080-0.080 2.4-0.48-0.4 1.040 0.32 0.96-2.16 2.64z"></path>
        </symbol>
        <symbol id="icon-viber-logo" viewBox="0 0 32 32">
            <path d="M26.32 11.6v-0.32c0-0.4-0.080-0.64-0.16-0.96-0.16-0.64-0.32-1.28-0.64-1.84s-0.64-1.12-1.12-1.6c-0.4-0.48-0.88-0.88-1.44-1.2s-1.12-0.56-1.76-0.8c-0.64-0.16-1.28-0.24-1.92-0.24h-7.12c-0.32 0-0.56 0.080-0.88 0.16-2.48 0.48-4.56 2.4-5.2 4.8-0.16 0.56-0.24 1.2-0.24 1.84s0 1.36 0 2.080v2.080c0 0.72 0 1.36 0.080 2 0.080 0.56 0.24 1.2 0.48 1.76s0.56 1.12 0.88 1.6c0.72 0.96 1.76 1.76 2.88 2.24v0l0.56 0.32-0.080 0.4c-0.080 0.88-0.16 1.76-0.24 2.64 0 0.24 0 0.4 0 0.64s0 0.4 0 0.56 0.16 0.32 0.16 0.32v0c0 0 0.080 0 0.16-0.080 0.16-0.080 0.24-0.24 0.4-0.4l0.4-0.48c0.32-0.32 0.56-0.64 0.8-1.040 0.48-0.72 1.040-1.36 1.52-2.080v0l0.24-0.24h5.68c0.4 0 0.64-0.080 0.96-0.080 0.64-0.16 1.28-0.32 1.84-0.64s1.12-0.64 1.6-1.12 0.88-0.96 1.2-1.52c0.32-0.56 0.56-1.12 0.72-1.76s0.24-1.28 0.24-1.92v-4.88zM21.52 18.4c-0.32 0.96-1.2 2.48-4.24 1.6s-5.44-3.44-6.56-5.36-1.6-3.68 0-5.36c1.12-0.96 2-0.32 2.080 0l0.88 2.32c0 0 0.24 0.32 0 0.72s-0.64 0.64-0.88 0.96c-0.24 0.32 0 0.56 0.24 0.96s1.68 2.48 3.28 3.040c0.8 0.56 1.28-0.24 1.28-0.24s0.24-0.24 0.64-0.72 0.56-0.32 0.72-0.24c0.24 0.16 2.32 1.28 2.32 1.28s0.56 0.080 0.24 1.040zM15.84 10.56l0.080-0.8c2.16 0.24 4.4 2.080 4.4 4.4h-0.8c0-1.92-1.92-3.44-3.68-3.6zM18.8 13.84l-0.8 0.16c-0.16-1.040-0.8-1.68-1.92-1.92l0.16-0.8c1.44 0.32 2.32 1.12 2.56 2.56zM21.68 14.96l-0.8-0.080c0.32-2-0.56-3.28-1.36-4.080-1.28-1.28-3.2-1.76-4.32-1.52l-0.16-0.8c1.28-0.24 3.52 0.24 5.040 1.76 0.96 0.8 2 2.32 1.6 4.72z"></path>
            <path d="M31.2 0h-30.4c-0.48 0-0.8 0.32-0.8 0.8v30.4c0 0.48 0.32 0.8 0.8 0.8h30.4c0.48 0 0.8-0.32 0.8-0.8v-30.4c0-0.48-0.32-0.8-0.8-0.8zM27.92 11.76v0.56l-0.080 4.32c0 0.8-0.080 1.6-0.32 2.32-0.16 0.8-0.48 1.52-0.88 2.16-0.4 0.72-0.88 1.28-1.44 1.84s-1.2 0.96-1.92 1.36-1.44 0.64-2.24 0.8c-0.4 0.080-0.88 0.16-1.2 0.16h-1.12l-4.24 0.080c-0.64 0.56-0.8 0.72-1.44 1.36-0.32 0.32-0.64 0.56-0.96 0.88l-0.48 0.48c-0.16 0.16-0.32 0.32-0.56 0.48-0.080 0.080-0.24 0.16-0.4 0.16-0.16 0.080-0.4 0-0.56-0.16-0.32-0.24-0.32-0.56-0.4-0.8 0-0.16-0.080-0.48-0.080-0.72s0-0.32-0.080-0.56c-0.16-0.88-0.32-1.2-0.48-2.080-1.44-0.56-2.16-1.36-3.12-2.56-0.48-0.64-0.8-1.28-1.12-2s-0.48-1.44-0.56-2.24c-0.080-0.4-0.080-0.72-0.080-1.12v-3.12c0-0.72 0-1.36 0-2.080s0.16-1.52 0.32-2.24c0.88-2.8 3.44-5.2 6.4-5.84 0.4-0.080 0.72-0.16 1.12-0.16h7.36c0.8 0 1.6 0.080 2.32 0.32s1.52 0.56 2.16 0.96c0.64 0.4 1.28 0.96 1.84 1.52s0.96 1.28 1.36 1.92c0.4 0.72 0.56 1.44 0.72 2.24 0.080 0.4 0.16 0.8 0.16 1.2v0.56z"></path>
        </symbol>
        <symbol id="icon-close" viewBox="0 0 32 32">
            <path d="M29.2 27.1l-11-11.1 10.9-10.9-2.1-2.1-10.9 10.9-11-10.9-2.1 2.1 10.9 10.9-11 11.1 2.1 2.1 11.1-11 11 11z"></path>
        </symbol>
        <symbol id="icon-email" viewBox="0 0 32 32">
            <path d="M29 5.9h-26c-1 0-1.8 0.8-1.8 1.8v16.6c0 1 0.8 1.8 1.8 1.8h26c1 0 1.8-0.8 1.8-1.8v-16.5c0-1-0.8-1.9-1.8-1.9zM16.6 17.6c-0.3 0.3-0.7 0.3-1 0l-11.9-10.2h24.1l-11.2 10.2zM11.4 16l-8.7 7.5v-15l8.7 7.5zM12.6 17l2.1 1.8c0.4 0.4 0.9 0.5 1.5 0.5 0.5 0 1.1-0.2 1.5-0.6l1.9-1.7 8.8 7.7h-24.8l9-7.7zM20.6 16l8.7-7.9v15.4l-8.7-7.5z"></path>
        </symbol>
        <symbol id="icon-phone-number" viewBox="0 0 32 32">
            <path d="M31.4 23.8c-0.2-0.8-0.7-1.4-1.7-2-2.6-1.6-3.8-2.1-5.7-3-2.3-1.1-3.2 0.7-3.6 1.3l-0.3 0.6c-0.1 0.2-0.2 0.3-0.3 0.6-0.1 0.1-0.1 0.2-0.2 0.3s-0.2 0.3-0.3 0.4c-0.8-0.5-6.9-4.4-9.4-9.3 0-0.1 0.3-0.5 1.2-0.9 0.9-0.3 1.3-0.9 1.4-1.4 0.5-1.1-0.2-2.4-0.5-2.7-0.8-1.7-2.2-4.5-2.7-5.6-0.4-0.8-0.9-1.3-1.4-1.5-0.4-0.1-0.9-0.2-1.5 0.2v0c0 0-1.2 0.7-2.8 1.5l-0.1 0.1c-2.1 1.6-3 4.1-2.6 7.1 0.9 7.3 9.1 17.2 17.3 20.7 2 0.9 3.9 1.3 5.5 1.3 2 0 3.8-0.6 5.3-1.9l0.2-0.2c0.3-0.6 0.6-1.1 0.9-1.6 0.9-1.6 1.6-2.8 1.3-4zM23.5 20.4c1.8 0.8 3 1.4 5.5 2.9 0.6 0.4 0.9 0.7 1 0.9 0.1 0.3-0.1 0.7-0.3 1.2l-8-4 0.2-0.5c0.3-0.6 0.5-1 1.6-0.5zM7.1 2.2c0.1 0 0.2-0.1 0.2-0.1s0.2 0.1 0.5 0.7c0.5 1.1 1.9 4 2.8 5.7 0.4 0.5 0.5 1.1 0.5 1.4 0 0.1-0.1 0.2-0.5 0.4-0.2 0.1-0.3 0.2-0.5 0.2l-3.6-7.9-1 0.5c0.9-0.5 1.6-0.8 1.6-0.9zM27.9 28.4c-2.8 2.2-6.5 1.4-9.2 0.2-7.6-3.2-15.5-12.6-16.3-19.3-0.3-2.4 0.4-4.3 2-5.5 0.3-0.1 0.5-0.3 0.7-0.4l3.8 8.1c-0.4 0.5-0.6 1.1-0.4 1.8l0.1 0.1c2.8 5.7 9.9 10 10.2 10.2 1 0.6 1.7-0.1 2-0.7l8 4c0 0 0 0 0 0.1-0.3 0.4-0.6 0.9-0.9 1.4z"></path>
        </symbol>
        <symbol id="icon-title" viewBox="0 0 32 32">
            <path d="M2.2 17.9l13.8 13.8 13.8-13.8-13.7-13.9-13.9 13.9zM16.1 23.7l-3.1 3.1-2.5-2.5 5.6-5.6 5.6 5.6-2.5 2.5-3.1-3.1zM16.1 17l-6.5 6.5-2.3-2.3 8.7-8.7 8.7 8.7-2.3 2.3-6.3-6.5zM25.7 20.3l-9.6-9.6-9.6 9.6-2.5-2.4 12-12 12 12-2.3 2.4z"></path>
            <path d="M30.1 13.9c-0.1 0-0.3 0-0.4 0.1l-13.6-13.7-13.7 13.7c-0.1 0-0.2-0.1-0.3-0.1-0.7 0-1.3 0.6-1.3 1.3s0.6 1.3 1.3 1.3 1.3-0.6 1.3-1.3c0-0.1 0-0.3-0.1-0.4l12.8-12.7 12.8 12.8c0 0.1-0.1 0.2-0.1 0.4 0 0.7 0.6 1.3 1.3 1.3s1.3-0.6 1.3-1.3c0-0.8-0.6-1.4-1.3-1.4z"></path>
        </symbol>
        <symbol id="icon-user-name" viewBox="0 0 32 32">
            <path d="M18.9 31.8c-1.3 0-2.4 0-2.9-0.1-2.2 0.1-12.7 0.4-14.5-2l-0.1-0.2c-0.7-1.7-0.2-4 1.4-6.3 1.9-2.8 5.6-5.8 9.2-5.6h0.1l0.1 0.1c2.5 1.1 4.9 1.1 7.4 0l0.3-0.1c3.7-0.2 7.3 2.8 9.2 5.6 1.6 2.3 2.1 4.6 1.4 6.3l-0.1 0.2c-1.3 1.8-7.5 2.1-11.5 2.1zM2.8 28.8c1 1.1 7.6 1.6 13.1 1.4v0 0c5.6 0.2 12.1-0.2 13.1-1.4 0.4-1.2 0-2.9-1.2-4.7-1.7-2.5-4.8-4.9-7.7-4.9 0 0 0 0-0.1 0-2.8 1.2-5.6 1.2-8.4 0 0 0 0 0-0.1 0-2.8 0-6 2.4-7.7 4.9-1 1.8-1.4 3.5-1 4.7z"></path>
            <path d="M16 16.7c-4.5 0-8.2-3.7-8.2-8.2s3.7-8.2 8.2-8.2 8.2 3.7 8.2 8.2-3.7 8.2-8.2 8.2zM16 1.9c-3.6 0-6.6 3-6.6 6.6s3 6.6 6.6 6.6 6.6-3 6.6-6.6-3-6.6-6.6-6.6z"></path>
        </symbol>
    </defs>
</svg>
