<svg aria-hidden="true" style="position: absolute; width: 0; height: 0; overflow: hidden;" version="1.1" xmlns="http://www.w3.org/2000/svg" xmlns:xlink="http://www.w3.org/1999/xlink">
<defs>
<symbol id="icon-top-arrow" viewBox="0 0 32 32">
<path d="M26.44 23.52l-10.44-9.080-10.44 9.080-2.6-3.040 13.040-11.32 13.040 11.32z"></path>
</symbol>
<symbol id="icon-close" viewBox="0 0 32 32">
<path d="M29.2 27.1l-11-11.1 10.9-10.9-2.1-2.1-10.9 10.9-11-10.9-2.1 2.1 10.9 10.9-11 11.1 2.1 2.1 11.1-11 11 11z"></path>
</symbol>
<symbol id="icon-email" viewBox="0 0 32 32">
<path d="M29 5.9h-26c-1 0-1.8 0.8-1.8 1.8v16.6c0 1 0.8 1.8 1.8 1.8h26c1 0 1.8-0.8 1.8-1.8v-16.5c0-1-0.8-1.9-1.8-1.9zM16.6 17.6c-0.3 0.3-0.7 0.3-1 0l-11.9-10.2h24.1l-11.2 10.2zM11.4 16l-8.7 7.5v-15l8.7 7.5zM12.6 17l2.1 1.8c0.4 0.4 0.9 0.5 1.5 0.5 0.5 0 1.1-0.2 1.5-0.6l1.9-1.7 8.8 7.7h-24.8l9-7.7zM20.6 16l8.7-7.9v15.4l-8.7-7.5z"></path>
</symbol>
<symbol id="icon-phone-number" viewBox="0 0 32 32">
<path d="M31.4 23.8c-0.2-0.8-0.7-1.4-1.7-2-2.6-1.6-3.8-2.1-5.7-3-2.3-1.1-3.2 0.7-3.6 1.3l-0.3 0.6c-0.1 0.2-0.2 0.3-0.3 0.6-0.1 0.1-0.1 0.2-0.2 0.3s-0.2 0.3-0.3 0.4c-0.8-0.5-6.9-4.4-9.4-9.3 0-0.1 0.3-0.5 1.2-0.9 0.9-0.3 1.3-0.9 1.4-1.4 0.5-1.1-0.2-2.4-0.5-2.7-0.8-1.7-2.2-4.5-2.7-5.6-0.4-0.8-0.9-1.3-1.4-1.5-0.4-0.1-0.9-0.2-1.5 0.2v0c0 0-1.2 0.7-2.8 1.5l-0.1 0.1c-2.1 1.6-3 4.1-2.6 7.1 0.9 7.3 9.1 17.2 17.3 20.7 2 0.9 3.9 1.3 5.5 1.3 2 0 3.8-0.6 5.3-1.9l0.2-0.2c0.3-0.6 0.6-1.1 0.9-1.6 0.9-1.6 1.6-2.8 1.3-4zM23.5 20.4c1.8 0.8 3 1.4 5.5 2.9 0.6 0.4 0.9 0.7 1 0.9 0.1 0.3-0.1 0.7-0.3 1.2l-8-4 0.2-0.5c0.3-0.6 0.5-1 1.6-0.5zM7.1 2.2c0.1 0 0.2-0.1 0.2-0.1s0.2 0.1 0.5 0.7c0.5 1.1 1.9 4 2.8 5.7 0.4 0.5 0.5 1.1 0.5 1.4 0 0.1-0.1 0.2-0.5 0.4-0.2 0.1-0.3 0.2-0.5 0.2l-3.6-7.9-1 0.5c0.9-0.5 1.6-0.8 1.6-0.9zM27.9 28.4c-2.8 2.2-6.5 1.4-9.2 0.2-7.6-3.2-15.5-12.6-16.3-19.3-0.3-2.4 0.4-4.3 2-5.5 0.3-0.1 0.5-0.3 0.7-0.4l3.8 8.1c-0.4 0.5-0.6 1.1-0.4 1.8l0.1 0.1c2.8 5.7 9.9 10 10.2 10.2 1 0.6 1.7-0.1 2-0.7l8 4c0 0 0 0 0 0.1-0.3 0.4-0.6 0.9-0.9 1.4z"></path>
</symbol>
<symbol id="icon-title" viewBox="0 0 32 32">
<path d="M2.2 17.9l13.8 13.8 13.8-13.8-13.7-13.9-13.9 13.9zM16.1 23.7l-3.1 3.1-2.5-2.5 5.6-5.6 5.6 5.6-2.5 2.5-3.1-3.1zM16.1 17l-6.5 6.5-2.3-2.3 8.7-8.7 8.7 8.7-2.3 2.3-6.3-6.5zM25.7 20.3l-9.6-9.6-9.6 9.6-2.5-2.4 12-12 12 12-2.3 2.4z"></path>
<path d="M30.1 13.9c-0.1 0-0.3 0-0.4 0.1l-13.6-13.7-13.7 13.7c-0.1 0-0.2-0.1-0.3-0.1-0.7 0-1.3 0.6-1.3 1.3s0.6 1.3 1.3 1.3 1.3-0.6 1.3-1.3c0-0.1 0-0.3-0.1-0.4l12.8-12.7 12.8 12.8c0 0.1-0.1 0.2-0.1 0.4 0 0.7 0.6 1.3 1.3 1.3s1.3-0.6 1.3-1.3c0-0.8-0.6-1.4-1.3-1.4z"></path>
</symbol>
<symbol id="icon-user-name" viewBox="0 0 32 32">
<path d="M18.9 31.8c-1.3 0-2.4 0-2.9-0.1-2.2 0.1-12.7 0.4-14.5-2l-0.1-0.2c-0.7-1.7-0.2-4 1.4-6.3 1.9-2.8 5.6-5.8 9.2-5.6h0.1l0.1 0.1c2.5 1.1 4.9 1.1 7.4 0l0.3-0.1c3.7-0.2 7.3 2.8 9.2 5.6 1.6 2.3 2.1 4.6 1.4 6.3l-0.1 0.2c-1.3 1.8-7.5 2.1-11.5 2.1zM2.8 28.8c1 1.1 7.6 1.6 13.1 1.4v0 0c5.6 0.2 12.1-0.2 13.1-1.4 0.4-1.2 0-2.9-1.2-4.7-1.7-2.5-4.8-4.9-7.7-4.9 0 0 0 0-0.1 0-2.8 1.2-5.6 1.2-8.4 0 0 0 0 0-0.1 0-2.8 0-6 2.4-7.7 4.9-1 1.8-1.4 3.5-1 4.7z"></path>
<path d="M16 16.7c-4.5 0-8.2-3.7-8.2-8.2s3.7-8.2 8.2-8.2 8.2 3.7 8.2 8.2-3.7 8.2-8.2 8.2zM16 1.9c-3.6 0-6.6 3-6.6 6.6s3 6.6 6.6 6.6 6.6-3 6.6-6.6-3-6.6-6.6-6.6z"></path>
</symbol>
</defs>
</svg>
