<svg aria-hidden="true" style="position: absolute; width: 0; height: 0; overflow: hidden;" version="1.1" xmlns="http://www.w3.org/2000/svg" xmlns:xlink="http://www.w3.org/1999/xlink">
    <defs>
        <symbol id="icon-youtube-logo" viewBox="0 0 32 32">
            <path d="M31.2 0h-30.4c-0.48 0-0.8 0.32-0.8 0.8v30.4c0 0.48 0.32 0.8 0.8 0.8h30.4c0.48 0 0.8-0.32 0.8-0.8v-30.4c0-0.48-0.32-0.8-0.8-0.8zM27.92 19.76c0 2.4-1.92 4.32-4.24 4.56-2.4 0.16-4.96 0.24-7.68 0.24-2.64 0-5.2-0.080-7.6-0.24s-4.16-2.16-4.16-4.56v-7.44c0-2.4 1.84-4.4 4.24-4.56s4.88-0.24 7.52-0.24 5.2 0.080 7.68 0.24c2.4 0.16 4.24 2.16 4.24 4.56v7.44z"></path>
            <path d="M23.28 16.24l-10 4.88v-9.76z"></path>
        </symbol>
        <symbol id="icon-facebook-logo" viewBox="0 0 32 32">
            <path d="M31.2 0h-30.4c-0.48 0-0.8 0.32-0.8 0.8v30.4c0 0.48 0.32 0.8 0.8 0.8h12.64v-11.6h-4v-4.4h4v-4.16c0 0-0.080-7.36 9.68-5.28 0 2.32 0 4.080 0 4.080h-2.48c-0.64 0-2 0.56-1.92 1.84v3.52h4.24l-0.72 4.56h-3.6v11.44h12.56c0.48 0 0.8-0.32 0.8-0.8v-30.4c0-0.48-0.32-0.8-0.8-0.8z"></path>
        </symbol>
        <symbol id="icon-instagram-logo" viewBox="0 0 32 32">
            <path d="M20.88 16.080c0 2.695-2.185 4.88-4.88 4.88s-4.88-2.185-4.88-4.88c0-2.695 2.185-4.88 4.88-4.88s4.88 2.185 4.88 4.88z"></path>
            <path d="M22.48 4.72h-12.96c-2.72 0-4.88 2.16-4.88 4.88v12.96c0 2.72 2.16 4.88 4.88 4.88h12.96c2.72 0 4.88-2.16 4.88-4.88v-12.96c0-2.72-2.16-4.88-4.88-4.88zM16 23.36c-4 0-7.28-3.28-7.28-7.28s3.28-7.28 7.28-7.28c4 0 7.28 3.28 7.28 7.28s-3.28 7.28-7.28 7.28zM23.36 10.24c-0.88 0-1.6-0.72-1.6-1.6s0.72-1.6 1.6-1.6c0.88 0 1.6 0.72 1.6 1.6 0 0.8-0.72 1.6-1.6 1.6z"></path>
            <path d="M31.2 0h-30.4c-0.48 0-0.8 0.32-0.8 0.8v30.4c0 0.48 0.32 0.8 0.8 0.8h30.4c0.48 0 0.8-0.32 0.8-0.8v-30.4c0-0.48-0.32-0.8-0.8-0.8zM29.76 22.56c0 4-3.28 7.28-7.28 7.28h-12.96c-4 0-7.28-3.28-7.28-7.28v-12.96c0-4 3.28-7.28 7.28-7.28h12.96c4 0 7.28 3.28 7.28 7.28v12.96z"></path>
        </symbol>
        <symbol id="icon-left-arrow" viewBox="0 0 19 32">
            <path fill="none" stroke="#000" style="stroke: var(--color1, #000)" stroke-linejoin="miter" stroke-linecap="butt" stroke-miterlimit="10" stroke-width="1.7021" d="M6.291 15.97l5.368-5.368 5.368 5.368-5.368 5.368-5.368-5.368z"></path>
            <path d="M15.523 0.272l-15.183 15.728 15.183 15.728v-2.962l-12.323-12.766 12.323-12.766z"></path>
        </symbol>
        <symbol id="icon-right-arrow" viewBox="0 0 19 32">
            <path fill="none" stroke="#000" style="stroke: var(--color1, #000)" stroke-linejoin="miter" stroke-linecap="butt" stroke-miterlimit="10" stroke-width="1.7021" d="M1.618 15.993l5.368-5.368 5.368 5.368-5.368 5.368-5.368-5.368z"></path>
            <path d="M3.098 0.272v2.962l12.323 12.766-12.323 12.766v2.962l15.183-15.728z"></path>
        </symbol>
        <symbol id="icon-romb" viewBox="0 0 32 32">
            <path d="M-0.045 16l16.045-16.045 16.045 16.045-16.045 16.045-16.045-16.045z"></path>
        </symbol>
        <symbol id="icon-telegram-logo" viewBox="0 0 32 32">
            <path d="M31.2 0h-30.4c-0.48 0-0.8 0.32-0.8 0.8v30.4c0 0.48 0.32 0.8 0.8 0.8h30.4c0.48 0 0.8-0.32 0.8-0.8v-30.4c0-0.48-0.32-0.8-0.8-0.8zM24.56 12.4c-0.72 5.040-1.36 8.24-1.84 11.040s-2.48 1.68-3.68 0.64c-1.52-0.88-3.44-2.24-5.040-3.36-1.36-1.040-0.080-1.84 0.48-2.4s4.8-4.48 5.2-4.96c0.48-0.4 0.24-1.040-0.56-0.56s-6.080 4.16-7.52 5.040-1.92 0.8-3.040 0.56c-1.12-0.32-2.56-0.72-3.12-0.96-0.56-0.16-1.44-0.88 0.24-1.6 0 0 10.24-4.48 14.72-6.32 4.32-1.6 4.96-2.080 4.16 2.88z"></path>
        </symbol>
        <symbol id="icon-twitter-logo" viewBox="0 0 32 32">
            <path d="M31.2 0h-30.4c-0.48 0-0.8 0.32-0.8 0.8v30.4c0 0.48 0.32 0.8 0.8 0.8h30.4c0.48 0 0.8-0.32 0.8-0.8v-30.4c0-0.48-0.32-0.8-0.8-0.8zM25.68 10.56c-0.56 2.96 0.16 5.6-3.36 9.6-2.56 3.6-9.36 7.44-17.84 2.96 2.72-0.56 4.88-0.24 6.64-2.16-0.32-0.080-3.28-0.4-4.24-3.36 0.4 0 1.2 0 1.92-0.16-0.8-0.96-3.44-0.64-3.6-4.88 0.48 0.16 1.36 0.48 1.92 0.4-0.56-0.8-3.28-2.4-1.28-6.32 0.64 0.72 3.52 4.48 9.92 4.96-1.12-3.92 4.64-8.32 8.4-4.56 0.72-0.16 2.16-0.56 2.96-1.040 0.24 1.12-1.76 2-1.68 2.4 0.72 0.16 2.080-0.080 2.4-0.48-0.4 1.040 0.32 0.96-2.16 2.64z"></path>
        </symbol>
        <symbol id="icon-viber-logo" viewBox="0 0 32 32">
            <path d="M26.32 11.6v-0.32c0-0.4-0.080-0.64-0.16-0.96-0.16-0.64-0.32-1.28-0.64-1.84s-0.64-1.12-1.12-1.6c-0.4-0.48-0.88-0.88-1.44-1.2s-1.12-0.56-1.76-0.8c-0.64-0.16-1.28-0.24-1.92-0.24h-7.12c-0.32 0-0.56 0.080-0.88 0.16-2.48 0.48-4.56 2.4-5.2 4.8-0.16 0.56-0.24 1.2-0.24 1.84s0 1.36 0 2.080v2.080c0 0.72 0 1.36 0.080 2 0.080 0.56 0.24 1.2 0.48 1.76s0.56 1.12 0.88 1.6c0.72 0.96 1.76 1.76 2.88 2.24v0l0.56 0.32-0.080 0.4c-0.080 0.88-0.16 1.76-0.24 2.64 0 0.24 0 0.4 0 0.64s0 0.4 0 0.56 0.16 0.32 0.16 0.32v0c0 0 0.080 0 0.16-0.080 0.16-0.080 0.24-0.24 0.4-0.4l0.4-0.48c0.32-0.32 0.56-0.64 0.8-1.040 0.48-0.72 1.040-1.36 1.52-2.080v0l0.24-0.24h5.68c0.4 0 0.64-0.080 0.96-0.080 0.64-0.16 1.28-0.32 1.84-0.64s1.12-0.64 1.6-1.12 0.88-0.96 1.2-1.52c0.32-0.56 0.56-1.12 0.72-1.76s0.24-1.28 0.24-1.92v-4.88zM21.52 18.4c-0.32 0.96-1.2 2.48-4.24 1.6s-5.44-3.44-6.56-5.36-1.6-3.68 0-5.36c1.12-0.96 2-0.32 2.080 0l0.88 2.32c0 0 0.24 0.32 0 0.72s-0.64 0.64-0.88 0.96c-0.24 0.32 0 0.56 0.24 0.96s1.68 2.48 3.28 3.040c0.8 0.56 1.28-0.24 1.28-0.24s0.24-0.24 0.64-0.72 0.56-0.32 0.72-0.24c0.24 0.16 2.32 1.28 2.32 1.28s0.56 0.080 0.24 1.040zM15.84 10.56l0.080-0.8c2.16 0.24 4.4 2.080 4.4 4.4h-0.8c0-1.92-1.92-3.44-3.68-3.6zM18.8 13.84l-0.8 0.16c-0.16-1.040-0.8-1.68-1.92-1.92l0.16-0.8c1.44 0.32 2.32 1.12 2.56 2.56zM21.68 14.96l-0.8-0.080c0.32-2-0.56-3.28-1.36-4.080-1.28-1.28-3.2-1.76-4.32-1.52l-0.16-0.8c1.28-0.24 3.52 0.24 5.040 1.76 0.96 0.8 2 2.32 1.6 4.72z"></path>
            <path d="M31.2 0h-30.4c-0.48 0-0.8 0.32-0.8 0.8v30.4c0 0.48 0.32 0.8 0.8 0.8h30.4c0.48 0 0.8-0.32 0.8-0.8v-30.4c0-0.48-0.32-0.8-0.8-0.8zM27.92 11.76v0.56l-0.080 4.32c0 0.8-0.080 1.6-0.32 2.32-0.16 0.8-0.48 1.52-0.88 2.16-0.4 0.72-0.88 1.28-1.44 1.84s-1.2 0.96-1.92 1.36-1.44 0.64-2.24 0.8c-0.4 0.080-0.88 0.16-1.2 0.16h-1.12l-4.24 0.080c-0.64 0.56-0.8 0.72-1.44 1.36-0.32 0.32-0.64 0.56-0.96 0.88l-0.48 0.48c-0.16 0.16-0.32 0.32-0.56 0.48-0.080 0.080-0.24 0.16-0.4 0.16-0.16 0.080-0.4 0-0.56-0.16-0.32-0.24-0.32-0.56-0.4-0.8 0-0.16-0.080-0.48-0.080-0.72s0-0.32-0.080-0.56c-0.16-0.88-0.32-1.2-0.48-2.080-1.44-0.56-2.16-1.36-3.12-2.56-0.48-0.64-0.8-1.28-1.12-2s-0.48-1.44-0.56-2.24c-0.080-0.4-0.080-0.72-0.080-1.12v-3.12c0-0.72 0-1.36 0-2.080s0.16-1.52 0.32-2.24c0.88-2.8 3.44-5.2 6.4-5.84 0.4-0.080 0.72-0.16 1.12-0.16h7.36c0.8 0 1.6 0.080 2.32 0.32s1.52 0.56 2.16 0.96c0.64 0.4 1.28 0.96 1.84 1.52s0.96 1.28 1.36 1.92c0.4 0.72 0.56 1.44 0.72 2.24 0.080 0.4 0.16 0.8 0.16 1.2v0.56z"></path>
        </symbol>
    </defs>
</svg>
