<?xml version="1.0" encoding="utf-8"?>
<!-- Generator: Adobe Illustrator 19.2.1, SVG Export Plug-In . SVG Version: 6.00 Build 0)  -->
<svg version="1.1" id="Layer_1" xmlns="http://www.w3.org/2000/svg" xmlns:xlink="http://www.w3.org/1999/xlink" x="0px" y="0px"
	 viewBox="0 0 800 800" style="enable-background:new 0 0 800 800;" xml:space="preserve">
<style type="text/css">
	.st0{fill:#EDEDED;}
	.st1{fill:#EDEDED;stroke:#000000;stroke-miterlimit:10;}
	.st2{fill:#EDEDED;stroke:#000000;stroke-width:10;stroke-miterlimit:10;}
</style>
<g id="Layer_1_1_">
</g>
<g id="Layer_3">
	<g>
		<path class="st0" d="M158.5,257.3l-42.8,96.2H133l7.3-16.9h40.8l7.1,16.9h18l-44.1-96.2H158.5z M173.7,322.8h-26
			c-0.6,0-1-0.6-0.7-1.1l12.9-29.6c0.3-0.6,1.1-0.6,1.4,0l13.2,29.6C174.7,322.2,174.3,322.8,173.7,322.8z"/>
		<path class="st0" d="M260.2,257.5c-32.4,0-37.4,0-37.4,0v96.2H238v-34.2h15l20.2,34.2H293c0,0-17.8-28-22.6-36.4
			C303.3,307.4,294.1,257.5,260.2,257.5z M257,305.5h-17.9v-33.8H257c9.3,0,16.9,7.6,16.9,16.9l0,0
			C273.9,297.9,266.3,305.5,257,305.5z"/>
		<path class="st0" d="M347.3,257.5h-34.9v96.2h34.9c26.4,0,47.7-21.4,47.7-47.7v-0.7C395,278.9,373.6,257.5,347.3,257.5z
			 M377,307.1c0,17.9-14.5,32.4-32.4,32.4h-14.9v-67.9h14.9c17.9,0,32.4,14.5,32.4,32.4V307.1z"/>
		<polygon class="st0" points="411.7,353.7 471,353.7 471,339.5 429,339.5 429,312.1 464.6,312.1 464.6,297.2 428.9,297.2 
			428.9,271.6 471,271.6 471,257.5 411.7,257.5 		"/>
		<path class="st0" d="M538.5,254.3c-27.9,0-50.5,23.1-50.5,50.3s22.6,52.3,50.5,52.3c27.9,0,50.5-25.3,50.5-52.5
			C589,277.3,566.4,254.3,538.5,254.3z M538.5,341.6c-16.6,0-31.1-17.3-31.1-36.9c0-18.9,14.3-34.9,31.1-34.9
			c16.9,0,31.1,15.9,31.1,34.7C569.6,324.2,555.1,341.6,538.5,341.6z"/>
		<polygon class="st0" points="673.1,257.5 673.8,318.2 672.3,318.2 613.2,257.5 610.4,257.5 610.4,353.7 625.2,353.7 625.2,293.9 
			627.3,293.9 685.3,353.7 689.7,353.7 689.7,257.5 		"/>
	</g>
</g>
<g id="Layer_4">
	<path class="st1" d="M103.5,222"/>
	<rect x="104.9" y="217.9" class="st0" width="295.1" height="10"/>
	<rect x="400" y="217.9" class="st0" width="295.1" height="10"/>
	<polygon class="st0" points="147.2,222 137.2,222 137.2,185.7 246.3,185.7 246.3,195.7 147.2,195.7 	"/>
	<polygon class="st0" points="186.5,190.7 176.5,190.7 176.5,142.8 247.3,142.8 247.3,152.8 186.5,152.8 	"/>
	<polygon class="st0" points="662.8,222 652.8,222 652.8,195.7 553.7,195.7 553.7,185.7 662.8,185.7 	"/>
	<polygon class="st0" points="623.5,190.7 613.5,190.7 613.5,152.8 552.7,152.8 552.7,142.8 623.5,142.8 	"/>
	<polygon class="st0" points="252.3,222.9 242.3,222.9 242.3,83.7 355.7,83.7 355.7,93.7 252.3,93.7 	"/>
	<polygon class="st0" points="557.7,222.9 547.7,222.9 547.7,93.7 444.3,93.7 444.3,83.7 557.7,83.7 	"/>
	<polygon class="st0" points="336.4,224.8 309.5,185.5 309.5,222.9 299.5,222.9 299.5,153.1 344.6,219.2 	"/>
	<polygon class="st0" points="463.6,224.8 455.4,219.2 500.5,153.1 500.5,222.9 490.5,222.9 490.5,185.5 	"/>
	<polygon class="st0" points="274.3,600.7 211,600.7 211,421 137.3,421 137.3,385 147.3,385 147.3,411 221,411 221,590.7 
		274.3,590.7 	"/>
	<polygon class="st0" points="589,600.7 525.7,600.7 525.7,590.7 579,590.7 579,411 652.7,411 652.7,385 662.7,385 662.7,421 
		589,421 	"/>
	<polygon class="st0" points="191,498.3 161,498.3 161,416 171,416 171,488.3 191,488.3 	"/>
	<polygon class="st0" points="639,498.3 609,498.3 609,488.3 629,488.3 629,416 639,416 	"/>
	<polygon class="st0" points="213.2,549.4 187.3,532 187.3,385 197.3,385 197.3,526.6 218.8,541.2 	"/>
	<polygon class="st0" points="586.8,549.4 581.2,541.2 602.7,526.6 602.7,385 612.7,385 612.7,532 	"/>
	<path class="st2" d="M247,384.5"/>
	<polygon class="st0" points="409.1,540 273,540 273,384 283,384 283,530 390.9,530 302.8,392.2 311.2,386.8 	"/>
	<polygon class="st0" points="527,540 390.9,540 488.8,386.8 497.2,392.2 409.1,530 517,530 517,384 527,384 	"/>
	<polygon class="st0" points="323.5,624 269.3,624 269.3,566 279.3,566 279.3,614 323.5,614 	"/>
	<polygon class="st0" points="530.7,624 476.5,624 476.5,614 520.7,614 520.7,566 530.7,566 	"/>
	<polygon class="st0" points="400,730.1 286.9,571 242,571 242,384.5 252,384.5 252,561 292.1,561 400,712.9 507.9,561 548,561 
		548,384.5 558,384.5 558,571 513.1,571 	"/>
	<polygon class="st0" points="400,769.7 296.9,621.9 305.1,616.1 400,752.3 494.9,616.1 503.1,621.9 	"/>
	<polygon class="st0" points="400,680.9 302,536.5 302,385 312,385 312,533.5 400,663.1 488,533.5 488,385 498,385 498,536.5 	"/>
	<polygon class="st0" points="400,626.1 338.7,537.9 346.9,532.1 400,608.5 453.2,532.1 461.4,537.9 	"/>
	
		<rect x="334.2" y="451.1" transform="matrix(0.743 -0.6693 0.6693 0.743 -246.9616 355.2991)" class="st0" width="10" height="96.2"/>
	
		<rect x="412.7" y="494.2" transform="matrix(0.6693 -0.743 0.743 0.6693 -218.5527 507.4438)" class="st0" width="96.2" height="10"/>
	<polygon class="st0" points="405,535 395,535 395,389 141,389.9 105.5,390 105.5,380 141,379.9 405,379 	"/>
	<polygon class="st0" points="405,535 395,535 395,379 694.5,380 694.5,390 659,389.9 405,389 	"/>
	<rect x="395" y="58.3" class="st0" width="10" height="162.2"/>
	<polygon class="st0" points="355.7,224.7 315.4,123 282.8,123 282.8,222.9 272.8,222.9 272.8,113 322.2,113 364.9,221.1 	"/>
	<polygon class="st0" points="355.7,224.7 315.4,123 282.8,123 282.8,222.9 272.8,222.9 272.8,113 322.2,113 364.9,221.1 	"/>
	<polygon class="st0" points="444.4,224.7 435.2,221.1 477.9,113 527.3,113 527.3,222.9 517.3,222.9 517.3,123 484.7,123 	"/>
	<polygon class="st0" points="478.3,122 400,63.7 321.8,122 315.8,114 400,51.3 484.3,114 	"/>
	
		<rect x="363.9" y="153.2" transform="matrix(0.2137 -0.9769 0.9769 0.2137 183.6965 544.6154)" class="st0" width="132.5" height="10"/>
	
		<rect x="364.8" y="92" transform="matrix(0.9769 -0.2137 0.2137 0.9769 -25.2597 82.6715)" class="st0" width="10" height="132.5"/>
</g>
</svg>
