<?xml version="1.0" encoding="utf-8"?>
<!-- Generator: Adobe Illustrator 19.2.1, SVG Export Plug-In . SVG Version: 6.00 Build 0)  -->
<svg version="1.1" xmlns="http://www.w3.org/2000/svg" xmlns:xlink="http://www.w3.org/1999/xlink" x="0px" y="0px"
	 viewBox="0 0 800 800" enable-background="new 0 0 800 800" xml:space="preserve">
<g id="Layer_1">
</g>
<g id="Layer_3">
	<g>
		<path d="M158.5,257.3l-42.8,96.2h17.3l7.3-16.9h40.8l7.1,16.9h18l-44.1-96.2H158.5z M173.7,322.8h-26c-0.6,0-1-0.6-0.7-1.1
			l12.9-29.6c0.3-0.6,1.1-0.6,1.4,0l13.2,29.6C174.7,322.2,174.3,322.8,173.7,322.8z"/>
		<path d="M260.2,257.5c-32.4,0-37.4,0-37.4,0v96.2H238v-34.2h15l20.2,34.2H293c0,0-17.8-28-22.6-36.4
			C303.3,307.4,294.1,257.5,260.2,257.5z M257,305.5h-17.9v-33.8H257c9.3,0,16.9,7.6,16.9,16.9v0C273.9,297.9,266.3,305.5,257,305.5
			z"/>
		<path d="M347.3,257.5h-34.9v96.2h34.9c26.4,0,47.7-21.4,47.7-47.7v-0.7C395,278.9,373.6,257.5,347.3,257.5z M377,307.1
			c0,17.9-14.5,32.4-32.4,32.4h-14.9v-67.9h14.9c17.9,0,32.4,14.5,32.4,32.4V307.1z"/>
		<polygon points="411.7,353.7 471,353.7 471,339.5 429,339.5 429,312.1 464.6,312.1 464.6,297.2 428.9,297.2 428.9,271.6 
			471,271.6 471,257.5 411.7,257.5 		"/>
		<path d="M538.5,254.3c-27.9,0-50.5,23.1-50.5,50.3c0,27.2,22.6,52.3,50.5,52.3c27.9,0,50.5-25.3,50.5-52.5
			C589,277.3,566.4,254.3,538.5,254.3z M538.5,341.6c-16.6,0-31.1-17.3-31.1-36.9c0-18.9,14.3-34.9,31.1-34.9
			c16.9,0,31.1,15.9,31.1,34.7C569.6,324.2,555.1,341.6,538.5,341.6z"/>
		<polygon points="673.1,257.5 673.8,318.2 672.3,318.2 613.2,257.5 610.4,257.5 610.4,353.7 625.2,353.7 625.2,293.9 627.3,293.9 
			685.3,353.7 689.7,353.7 689.7,257.5 		"/>
	</g>
</g>
<g id="Layer_4">
	<path fill="none" stroke="#000000" stroke-miterlimit="10" d="M103.5,222"/>
	<line fill="none" stroke="#000000" stroke-width="10" stroke-miterlimit="10" x1="104.9" y1="222.9" x2="400" y2="222.9"/>
	<line fill="none" stroke="#000000" stroke-width="10" stroke-miterlimit="10" x1="695.1" y1="222.9" x2="400" y2="222.9"/>
	<polyline fill="none" stroke="#000000" stroke-width="10" stroke-miterlimit="10" points="142.2,222 142.2,190.7 180.5,190.7 
		246.3,190.7 	"/>
	<polyline fill="none" stroke="#000000" stroke-width="10" stroke-miterlimit="10" points="247.3,147.8 181.5,147.8 181.5,190.7 	
		"/>
	<polyline fill="none" stroke="#000000" stroke-width="10" stroke-miterlimit="10" points="657.8,222 657.8,190.7 619.5,190.7 
		553.7,190.7 	"/>
	<polyline fill="none" stroke="#000000" stroke-width="10" stroke-miterlimit="10" points="552.7,147.8 618.5,147.8 618.5,190.7 	
		"/>
	<polyline fill="none" stroke="#000000" stroke-width="10" stroke-miterlimit="10" points="355.7,88.7 247.3,88.7 247.3,222.9 	"/>
	<polyline fill="none" stroke="#000000" stroke-width="10" stroke-miterlimit="10" points="444.3,88.7 552.7,88.7 552.7,222.9 	"/>
	<polyline fill="none" stroke="#000000" stroke-width="10" stroke-miterlimit="10" points="304.5,222.9 304.5,169.3 340.5,222 	"/>
	<polyline fill="none" stroke="#000000" stroke-width="10" stroke-miterlimit="10" points="495.5,222.9 495.5,169.3 459.5,222 	"/>
	<polyline fill="none" stroke="#000000" stroke-width="10" stroke-miterlimit="10" points="142.3,385 142.3,416 166,416 216,416 
		216,595.7 274.3,595.7 	"/>
	<polyline fill="none" stroke="#000000" stroke-width="10" stroke-miterlimit="10" points="657.7,385 657.7,416 634,416 584,416 
		584,595.7 525.7,595.7 	"/>
	<polyline fill="none" stroke="#000000" stroke-width="10" stroke-miterlimit="10" points="166,416 166,493.3 191,493.3 	"/>
	<polyline fill="none" stroke="#000000" stroke-width="10" stroke-miterlimit="10" points="634,416 634,493.3 609,493.3 	"/>
	<polyline fill="none" stroke="#000000" stroke-width="10" stroke-miterlimit="10" points="192.3,385 192.3,529.3 216,545.3 	"/>
	<polyline fill="none" stroke="#000000" stroke-width="10" stroke-miterlimit="10" points="607.7,385 607.7,529.3 584,545.3 	"/>
	<path fill="none" stroke="#000000" stroke-width="10" stroke-miterlimit="10" d="M247,384.5"/>
	<polyline fill="none" stroke="#000000" stroke-width="10" stroke-miterlimit="10" points="278,384 278,535 400,535 307,389.5 	"/>
	<polyline fill="none" stroke="#000000" stroke-width="10" stroke-miterlimit="10" points="522,384 522,535 400,535 493,389.5 	"/>
	<polyline fill="none" stroke="#000000" stroke-width="10" stroke-miterlimit="10" points="274.3,566 274.3,619 323.5,619 	"/>
	<polyline fill="none" stroke="#000000" stroke-width="10" stroke-miterlimit="10" points="525.7,566 525.7,619 476.5,619 	"/>
	<polyline fill="none" stroke="#000000" stroke-width="10" stroke-miterlimit="10" points="553,384.5 553,566 510.5,566 400,721.5 
		289.5,566 247,566 247,384.5 	"/>
	<polyline fill="none" stroke="#000000" stroke-width="10" stroke-miterlimit="10" points="499,619 400,761 301,619 	"/>
	<polyline fill="none" stroke="#000000" stroke-width="10" stroke-miterlimit="10" points="493,385 493,535 400,672 307,535 
		307,385 	"/>
	<polyline fill="none" stroke="#000000" stroke-width="10" stroke-miterlimit="10" points="457.3,535 400,617.3 342.8,535 	"/>
	<line fill="none" stroke="#000000" stroke-width="10" stroke-miterlimit="10" x1="371.4" y1="535" x2="307" y2="463.5"/>
	<line fill="none" stroke="#000000" stroke-width="10" stroke-miterlimit="10" x1="428.6" y1="535" x2="493" y2="463.5"/>
	<polyline fill="none" stroke="#000000" stroke-width="10" stroke-miterlimit="10" points="400,535 400,384 141,384.9 105.5,385 	
		"/>
	<polyline fill="none" stroke="#000000" stroke-width="10" stroke-miterlimit="10" points="400,535 400,384 659,384.9 694.5,385 	
		"/>
	<line fill="none" stroke="#000000" stroke-width="10" stroke-miterlimit="10" x1="400" y1="220.5" x2="400" y2="58.3"/>
	<polyline fill="none" stroke="#000000" stroke-width="10" stroke-miterlimit="10" points="360.3,222.9 318.8,118 277.8,118 
		277.8,222.9 	"/>
	<polyline fill="none" stroke="#000000" stroke-width="10" stroke-miterlimit="10" points="360.3,222.9 318.8,118 277.8,118 
		277.8,222.9 	"/>
	<polyline fill="none" stroke="#000000" stroke-width="10" stroke-miterlimit="10" points="439.8,222.9 481.3,118 522.3,118 
		522.3,222.9 	"/>
	<polyline fill="none" stroke="#000000" stroke-width="10" stroke-miterlimit="10" points="481.3,118 400,57.5 318.8,118 	"/>
	<line fill="none" stroke="#000000" stroke-width="10" stroke-miterlimit="10" x1="416" y1="222.9" x2="444.3" y2="93.5"/>
	<line fill="none" stroke="#000000" stroke-width="10" stroke-miterlimit="10" x1="384" y1="222.9" x2="355.7" y2="93.5"/>
</g>
</svg>
